<svg width="47" height="54" viewBox="0 0 47 54" fill="none" xmlns="http://www.w3.org/2000/svg">
<path d="M23.7471 53.25C36.448 53.25 46.7441 42.9539 46.7441 30.2529C46.7441 17.552 36.448 7.25586 23.7471 7.25586C11.0461 7.25586 0.75 17.552 0.75 30.2529C0.75 42.9539 11.0461 53.25 23.7471 53.25Z" fill="#ACD3F7"/>
<path d="M23.9478 18.1491C28.0701 18.1491 31.4118 14.8074 31.4118 10.6852C31.4118 6.56292 28.0701 3.22119 23.9478 3.22119C19.8256 3.22119 16.4839 6.56292 16.4839 10.6852C16.4839 14.8074 19.8256 18.1491 23.9478 18.1491Z" fill="#EEF6FF"/>
<path d="M17.0896 17.7456C20.7207 21.3768 26.1674 21.5785 30.2019 18.5526C31.2106 19.5612 37.0607 25.4113 37.8676 26.2183L39.6832 24.4027C39.4815 24.201 33.2279 17.9474 32.0175 16.737C35.0434 12.9042 34.8417 7.25575 31.2106 3.62463C27.3777 -0.208211 21.1241 -0.208211 17.2913 3.62463C13.055 7.65921 13.055 13.9128 17.0896 17.7456ZM18.7034 5.44019C21.5276 2.61599 26.3691 2.61599 29.1933 5.44019C32.0175 8.26439 32.0175 13.1059 29.1933 15.9301C26.3691 18.7543 21.5276 18.7543 18.7034 15.9301C15.8792 13.1059 15.8792 8.46612 18.7034 5.44019Z" fill="#22273C"/>
<path d="M34.8752 24.8176C35.2787 25.221 35.4804 25.4228 35.8839 25.8262C36.0856 26.0279 39.9185 29.8608 40.1202 30.0625C41.1288 31.0712 42.5409 31.0712 43.5496 30.0625C44.5582 29.0539 44.5582 27.6418 43.5496 26.6331C43.3478 26.4314 40.1202 23.2037 39.3133 22.3968L38.3046 21.3882L36.6908 23.002C35.8839 23.8089 35.6822 24.0107 34.8752 24.8176Z" fill="#FF9800"/>
<path d="M33.6321 33.0767H4.17974C2.96937 33.0767 1.96072 33.6818 1.15381 34.4888C3.1711 45.1804 12.4506 53.2495 23.7474 53.2495C28.9924 53.2495 33.8339 51.434 37.6667 48.6098V37.1112C37.6667 34.8922 35.8511 33.0767 33.6321 33.0767Z" fill="#007AFF"/>
<path d="M25.5626 24.6045H1.35519C0.951729 26.4201 0.75 28.2356 0.75 30.0512C0.75 42.9618 11.0382 53.25 23.7471 53.25C25.7644 53.25 27.7816 53.0483 29.5972 52.4431V28.6391C29.5972 26.4201 27.7816 24.6045 25.5626 24.6045Z" fill="#EEF6FF"/>
<path d="M23.9489 38.3218H7.00369C6.60023 38.3218 6.19678 37.9184 6.19678 37.5149C6.19678 37.1115 6.60023 36.708 7.00369 36.708H23.9489C24.3524 36.708 24.7558 37.1115 24.7558 37.5149C24.7558 37.9184 24.5541 38.3218 23.9489 38.3218Z" fill="#22273C"/>
<path d="M23.9489 42.1544H7.00369C6.60023 42.1544 6.19678 41.7509 6.19678 41.3474C6.19678 40.944 6.60023 40.5405 7.00369 40.5405H23.9489C24.3524 40.5405 24.7558 40.944 24.7558 41.3474C24.7558 41.7509 24.5541 42.1544 23.9489 42.1544Z" fill="#22273C"/>
<path d="M11.042 29.2944H11.9634L10.629 33.0277H9.85584L9.06683 30.7877L8.26723 33.0277H7.48881L6.15967 29.2944H7.1499L7.92303 31.6615L8.7597 29.2944H9.43221L10.2318 31.7038L11.042 29.2944Z" fill="#22273C"/>
<path d="M17.4022 29.2944H18.3236L16.9892 33.0277H16.2161L15.4271 30.7877L14.6275 33.0277H13.849L12.5199 29.2944H13.5101L14.2833 31.6615L15.1199 29.2944H15.7925L16.5921 31.7038L17.4022 29.2944Z" fill="#22273C"/>
<path d="M23.7625 29.2944H24.6839L23.3494 33.0277H22.5763L21.7873 30.7877L20.9877 33.0277H20.2093L18.8802 29.2944H19.8704L20.6435 31.6615L21.4802 29.2944H22.1527L22.9523 31.7038L23.7625 29.2944Z" fill="#22273C"/>
</svg>
