<svg width="14" height="14" viewBox="0 0 14 14" fill="none" xmlns="http://www.w3.org/2000/svg">
<path d="M6.99992 0.333008C5.68138 0.333008 4.39245 0.724001 3.29612 1.45654C2.19979 2.18909 1.34531 3.23028 0.840725 4.44845C0.336141 5.66663 0.204118 7.00707 0.461353 8.30028C0.718588 9.59348 1.35353 10.7814 2.28588 11.7137C3.21823 12.6461 4.40611 13.281 5.69932 13.5382C6.99253 13.7955 8.33297 13.6635 9.55114 13.1589C10.7693 12.6543 11.8105 11.7998 12.5431 10.7035C13.2756 9.60715 13.6666 8.31822 13.6666 6.99967C13.6646 5.23219 12.9615 3.53767 11.7117 2.28786C10.4619 1.03806 8.76741 0.33503 6.99992 0.333008ZM10.4713 5.40853L6.34625 9.53353C6.28437 9.59545 6.21089 9.64457 6.13001 9.67808C6.04913 9.71159 5.96245 9.72884 5.8749 9.72884C5.78736 9.72884 5.70067 9.71159 5.61979 9.67808C5.53892 9.64457 5.46544 9.59545 5.40355 9.53353L3.52859 7.65853C3.40487 7.53325 3.33575 7.36412 3.3363 7.18806C3.33685 7.01199 3.40703 6.8433 3.53152 6.7188C3.65602 6.5943 3.82471 6.52411 4.00078 6.52355C4.17684 6.52299 4.34597 6.59211 4.47125 6.71582L5.8749 8.11947L9.52859 4.46582C9.65387 4.34211 9.823 4.27299 9.99907 4.27355C10.1751 4.27411 10.3438 4.3443 10.4683 4.4688C10.5928 4.5933 10.663 4.76199 10.6635 4.93806C10.6641 5.11412 10.595 5.28325 10.4713 5.40853Z" fill="#00BFA6"/>
</svg>
