<svg width="57" height="52" viewBox="0 0 57 52" fill="none" xmlns="http://www.w3.org/2000/svg">
<path d="M45.532 13.822C44.8308 13.822 44.1311 13.8931 43.444 14.0348C42.9259 11.3989 41.2508 9.15044 38.8989 7.93341C36.5475 6.71638 33.7781 6.66533 31.3846 7.79458C29.2185 1.71276 22.6257 -1.42739 16.6592 0.780541C10.6926 2.98847 7.61199 9.7091 9.77807 15.7905C4.55149 15.9589 0.422929 20.3685 0.501092 25.698C0.579722 31.0279 4.83653 35.3088 10.0659 35.3174H45.532C51.3548 35.3174 56.0759 30.5055 56.0759 24.5697C56.0759 18.6339 51.3548 13.822 45.532 13.822Z" fill="#ACD3F7"/>
<path fill-rule="evenodd" clip-rule="evenodd" d="M28.1534 23.691C28.8314 23.691 29.381 24.2407 29.381 24.9186L29.381 46.0335C29.381 46.7115 28.8314 47.2611 28.1534 47.2611C27.4754 47.2611 26.9258 46.7115 26.9258 46.0335L26.9258 24.9186C26.9258 24.2407 27.4754 23.691 28.1534 23.691Z" fill="#22273C"/>
<path d="M8.30322 23.0257C8.30322 20.9373 9.99617 19.2444 12.0845 19.2444H44.2256C46.314 19.2444 48.0069 20.9373 48.0069 23.0257V28.5438C48.0069 30.6321 46.314 32.3251 44.2256 32.3251H12.0845C9.99617 32.3251 8.30322 30.6321 8.30322 28.5438V23.0257Z" fill="#007AFF"/>
<path fill-rule="evenodd" clip-rule="evenodd" d="M14.1118 25.7736C14.1118 25.2515 14.5351 24.8282 15.0571 24.8282H31.5658C32.0878 24.8282 32.5111 25.2515 32.5111 25.7736C32.5111 26.2957 32.0878 26.7189 31.5658 26.7189H15.0571C14.5351 26.7189 14.1118 26.2957 14.1118 25.7736Z" fill="#ACD3F7"/>
<path d="M42.1949 25.3179C42.1949 26.6079 41.111 27.6537 39.774 27.6537C38.4369 27.6537 37.353 26.6079 37.353 25.3179C37.353 24.0278 38.4369 22.9821 39.774 22.9821C41.111 22.9821 42.1949 24.0278 42.1949 25.3179Z" fill="#FF9800"/>
<path fill-rule="evenodd" clip-rule="evenodd" d="M42.8862 47.0156C42.8862 47.6936 42.3366 48.2432 41.6586 48.2432L14.6513 48.2432C13.9733 48.2432 13.4237 47.6936 13.4237 47.0156C13.4237 46.3376 13.9733 45.788 14.6513 45.788L41.6586 45.788C42.3366 45.788 42.8862 46.3376 42.8862 47.0156Z" fill="#22273C"/>
<path d="M33.066 47.0158C33.066 49.7277 30.8675 51.9262 28.1555 51.9262C25.4436 51.9262 23.2451 49.7277 23.2451 47.0158C23.2451 44.3038 25.4436 42.1053 28.1555 42.1053C30.8675 42.1053 33.066 44.3038 33.066 47.0158Z" fill="#EEF6FF"/>
<path fill-rule="evenodd" clip-rule="evenodd" d="M28.1555 49.471C29.5115 49.471 30.6108 48.3717 30.6108 47.0158C30.6108 45.6598 29.5115 44.5606 28.1555 44.5606C26.7996 44.5606 25.7003 45.6598 25.7003 47.0158C25.7003 48.3717 26.7996 49.471 28.1555 49.471ZM28.1555 51.9262C30.8675 51.9262 33.066 49.7277 33.066 47.0158C33.066 44.3038 30.8675 42.1053 28.1555 42.1053C25.4436 42.1053 23.2451 44.3038 23.2451 47.0158C23.2451 49.7277 25.4436 51.9262 28.1555 51.9262Z" fill="#22273C"/>
<path d="M15.8792 47.0154C15.8792 48.3714 14.7799 49.4706 13.424 49.4706C12.068 49.4706 10.9688 48.3714 10.9688 47.0154C10.9688 45.6594 12.068 44.5602 13.424 44.5602C14.7799 44.5602 15.8792 45.6594 15.8792 47.0154Z" fill="#22273C"/>
<path d="M45.3426 47.0154C45.3426 48.3714 44.2433 49.4706 42.8873 49.4706C41.5314 49.4706 40.4321 48.3714 40.4321 47.0154C40.4321 45.6594 41.5314 44.5602 42.8873 44.5602C44.2433 44.5602 45.3426 45.6594 45.3426 47.0154Z" fill="#22273C"/>
<path d="M32.6479 15.6296C36.6571 15.6296 39.9072 12.3795 39.9072 8.37034C39.9072 4.36117 36.6571 1.11108 32.6479 1.11108C28.6388 1.11108 25.3887 4.36117 25.3887 8.37034C25.3887 12.3795 28.6388 15.6296 32.6479 15.6296Z" fill="#FF9800"/>
<path d="M36.2019 6.92667L36.2024 6.92718L36.2098 6.91784C36.4596 6.60376 36.4266 6.13293 36.1336 5.8616C35.8388 5.58806 35.3932 5.62453 35.1393 5.9385L31.4077 9.51742L30.1242 8.13105C29.8481 7.8328 29.3982 7.8328 29.1221 8.13105C28.8501 8.42487 28.8501 8.89703 29.1221 9.19086L30.9367 11.1509C30.9367 11.151 30.9368 11.151 30.9368 11.1511C31.0696 11.2952 31.2509 11.3747 31.4613 11.374L31.4613 11.3741L31.4652 11.3739C31.6616 11.3655 31.845 11.2703 31.9716 11.1129L36.2019 6.92667Z" fill="white" stroke="white" stroke-width="0.2"/>
<path d="M24.3519 13.5556C24.3519 14.1283 23.8876 14.5926 23.3149 14.5926C22.7421 14.5926 22.2778 14.1283 22.2778 13.5556C22.2778 12.9829 22.7421 12.5186 23.3149 12.5186C23.8876 12.5186 24.3519 12.9829 24.3519 13.5556Z" fill="white"/>
<path d="M21.2409 8.37034C21.2409 9.51582 20.3123 10.4444 19.1668 10.4444C18.0214 10.4444 17.0928 9.51582 17.0928 8.37034C17.0928 7.22486 18.0214 6.29626 19.1668 6.29626C20.3123 6.29626 21.2409 7.22486 21.2409 8.37034Z" fill="white"/>
</svg>
