<svg width="57" height="56" viewBox="0 0 57 56" fill="none" xmlns="http://www.w3.org/2000/svg">
<g clip-path="url(#clip0_457_10024)">
<ellipse cx="29.719" cy="30.4824" rx="22.9963" ry="22.9963" fill="#ACD3F7"/>
<mask id="mask0_457_10024" style="mask-type:alpha" maskUnits="userSpaceOnUse" x="6" y="7" width="47" height="47">
<ellipse cx="29.719" cy="30.4824" rx="22.9963" ry="22.9963" fill="#ACD3F7"/>
</mask>
<g mask="url(#mask0_457_10024)">
<path d="M2.57422 29.1157C2.57422 26.9066 4.36508 25.1157 6.57422 25.1157H32.2474C34.4565 25.1157 36.2474 26.9066 36.2474 29.1157V36.6139H2.57422V29.1157Z" fill="#007AFF"/>
<rect x="2.57422" y="35.7925" width="33.6731" height="10.6769" fill="#007AFF"/>
<path d="M2.57422 45.6479H36.2474V53.1461C36.2474 55.3552 34.4565 57.1461 32.2474 57.1461H6.57422C4.36508 57.1461 2.57422 55.3552 2.57422 53.1461V45.6479Z" fill="#007AFF"/>
<line x1="8.50293" y1="30.6862" x2="22.1076" y2="30.6862" stroke="#ACD3F7" stroke-width="2" stroke-linecap="round"/>
<line x1="8.50293" y1="40.5416" x2="22.1076" y2="40.5416" stroke="#ACD3F7" stroke-width="2" stroke-linecap="round"/>
<line x1="8.50293" y1="51.2185" x2="22.1076" y2="51.2185" stroke="#ACD3F7" stroke-width="2" stroke-linecap="round"/>
<ellipse cx="29.2671" cy="30.4541" rx="2.05324" ry="2.05324" fill="#FF9800"/>
<ellipse cx="29.2671" cy="41.131" rx="2.05324" ry="2.05324" fill="#FF9800"/>
<ellipse cx="29.2671" cy="51.8079" rx="2.05324" ry="2.05324" fill="#FF9800"/>
<line x1="2.57422" y1="36.1139" x2="36.2474" y2="36.1139" stroke="#0057B2"/>
<line x1="2.57422" y1="45.9694" x2="36.2474" y2="45.9694" stroke="#0057B2"/>
</g>
<rect x="27.627" y="13.8091" width="25.2164" height="12.0078" fill="#EEF6FF"/>
<path d="M51.2819 11.4075H29.1876C27.6686 11.4075 26.4396 12.6908 26.4396 14.2593L26.4258 31.3704C26.4258 32.939 27.6686 34.2223 29.1876 34.2223H51.2819C52.8009 34.2223 54.0437 32.939 54.0437 31.3704V14.2593C54.0437 12.6908 52.8009 11.4075 51.2819 11.4075ZM50.7296 17.4677L40.9666 23.7702C40.5247 24.0554 39.9448 24.0554 39.5029 23.7702L29.7399 17.4677C29.6015 17.3874 29.4802 17.279 29.3835 17.1489C29.2868 17.0188 29.2167 16.8699 29.1773 16.711C29.138 16.5522 29.1303 16.3867 29.1546 16.2247C29.179 16.0627 29.235 15.9074 29.3191 15.7684C29.4033 15.6293 29.5139 15.5094 29.6443 15.4157C29.7746 15.3221 29.922 15.2568 30.0776 15.2237C30.2331 15.1906 30.3935 15.1904 30.5491 15.2232C30.7047 15.2559 30.8522 15.321 30.9827 15.4143L40.2347 21.389L49.4868 15.4143C49.6173 15.321 49.7648 15.2559 49.9204 15.2232C50.076 15.1904 50.2364 15.1906 50.3919 15.2237C50.5475 15.2568 50.6949 15.3221 50.8252 15.4157C50.9556 15.5094 51.0662 15.6293 51.1504 15.7684C51.2345 15.9074 51.2905 16.0627 51.3148 16.2247C51.3392 16.3867 51.3315 16.5522 51.2922 16.711C51.2528 16.8699 51.1827 17.0188 51.086 17.1489C50.9893 17.279 50.868 17.3874 50.7296 17.4677Z" fill="#FF9800"/>
<ellipse cx="12.9447" cy="11.4074" rx="9.33333" ry="9.33333" fill="#22273C"/>
<path d="M12.9451 6.22229C12.1497 6.22226 11.365 6.40519 10.6517 6.75695C9.93835 7.10871 9.3155 7.61986 8.83131 8.25085C8.34712 8.88185 8.01457 9.61577 7.8594 10.3959C7.70423 11.1759 7.73059 11.9813 7.93645 12.7495C8.1423 13.5178 8.52213 14.2284 9.04655 14.8264C9.57096 15.4243 10.2259 15.8937 10.9607 16.198C11.6955 16.5024 12.4905 16.6336 13.2842 16.5815C14.0778 16.5295 14.8488 16.2956 15.5376 15.8978C15.5996 15.8654 15.6543 15.8208 15.6986 15.7667C15.7429 15.7126 15.7757 15.65 15.7952 15.5829C15.8147 15.5157 15.8204 15.4453 15.812 15.3759C15.8035 15.3064 15.7812 15.2394 15.7462 15.1789C15.7112 15.1184 15.6643 15.0655 15.6083 15.0236C15.5524 14.9816 15.4885 14.9514 15.4206 14.9348C15.3527 14.9181 15.2821 14.9154 15.2131 14.9267C15.1441 14.9381 15.0781 14.9633 15.0191 15.0008C14.2283 15.4574 13.309 15.6402 12.4037 15.5211C11.4985 15.4019 10.6578 14.9874 10.0121 14.3418C9.36642 13.6961 8.9518 12.8555 8.83254 11.9502C8.71328 11.0449 8.89605 10.1256 9.35251 9.33474C9.80897 8.54391 10.5136 7.92579 11.3571 7.57624C12.2007 7.22669 13.136 7.16524 14.018 7.40142C14.9 7.6376 15.6794 8.15822 16.2354 8.88253C16.7914 9.60684 17.0929 10.4944 17.0931 11.4075V11.7964C17.0931 12.037 16.9975 12.2678 16.8274 12.438C16.6572 12.6082 16.4264 12.7038 16.1857 12.7038C15.9451 12.7038 15.7143 12.6082 15.5441 12.438C15.3739 12.2678 15.2783 12.037 15.2783 11.7964V9.59266C15.2783 9.45514 15.2237 9.32325 15.1265 9.22601C15.0292 9.12877 14.8974 9.07414 14.7598 9.07414C14.6393 9.07146 14.5215 9.11089 14.4269 9.18566C14.3322 9.26043 14.2666 9.36584 14.2413 9.48377C13.8602 9.22015 13.4085 9.07741 12.9451 9.07414C12.5547 9.06947 12.1694 9.16282 11.8245 9.34564C11.4796 9.52845 11.186 9.79489 10.9707 10.1205C10.7555 10.4462 10.6253 10.8207 10.5923 11.2097C10.5592 11.5986 10.6243 11.9897 10.7815 12.347C10.9387 12.7044 11.1831 13.0165 11.4922 13.2549C11.8013 13.4934 12.1653 13.6504 12.5508 13.7117C12.9364 13.773 13.3311 13.7366 13.6989 13.6058C14.0667 13.475 14.3959 13.254 14.6561 12.963C14.9025 13.2821 15.2422 13.5164 15.6279 13.6335C16.0136 13.7505 16.4262 13.7445 16.8084 13.6162C17.1905 13.4878 17.5231 13.2436 17.76 12.9175C17.9969 12.5913 18.1263 12.1994 18.1301 11.7964V11.4075C18.1301 10.7265 17.996 10.0523 17.7354 9.42319C17.4749 8.79409 17.0929 8.22248 16.6115 7.741C16.13 7.25951 15.5584 6.87757 14.9293 6.61699C14.3002 6.35641 13.626 6.22229 12.9451 6.22229ZM12.9451 12.7038C12.6887 12.7038 12.4381 12.6277 12.2249 12.4853C12.0117 12.3429 11.8456 12.1404 11.7475 11.9035C11.6494 11.6667 11.6237 11.406 11.6737 11.1546C11.7237 10.9031 11.8472 10.6721 12.0285 10.4909C12.2098 10.3096 12.4407 10.1861 12.6922 10.1361C12.9436 10.0861 13.2043 10.1117 13.4411 10.2099C13.678 10.308 13.8804 10.4741 14.0229 10.6873C14.1653 10.9005 14.2413 11.1511 14.2413 11.4075C14.2413 11.7513 14.1048 12.081 13.8617 12.3241C13.6186 12.5672 13.2889 12.7038 12.9451 12.7038Z" fill="#EEF6FF"/>
</g>
<defs>
<clipPath id="clip0_457_10024">
<rect width="56" height="56" fill="white" transform="translate(0.5)"/>
</clipPath>
</defs>
</svg>
