<svg width="45" height="22" viewBox="0 0 45 22" fill="none" xmlns="http://www.w3.org/2000/svg">
<path d="M20.2866 1.77774C17.7148 0.729034 14.8304 0.729034 12.2586 1.77774L11.7636 2.00115C11.3613 2.18727 10.9733 2.40231 10.6026 2.64455C9.97487 3.046 9.39252 3.51337 8.86558 4.03859L1.66558 11.1875C1.13093 11.7256 0.708825 12.3634 0.423576 13.0641C-0.0112724 14.1152 -0.121951 15.2709 0.105574 16.3845C0.3331 17.4982 0.888581 18.5197 1.70158 19.3194C2.24449 19.8577 2.89009 20.283 3.60058 20.5705C4.29276 20.8478 5.03217 20.9904 5.77858 20.9905H5.98558C5.29893 20.734 4.68864 20.3095 4.21133 19.7563C3.73403 19.2032 3.40516 18.5392 3.25525 17.8262C3.10534 17.1131 3.13923 16.374 3.35379 15.6775C3.56834 14.9809 3.95661 14.3494 4.48258 13.8416H4.50058L10.5036 7.87221L11.1426 7.23774L11.3586 7.03221L11.6016 6.79093C11.7458 6.64178 11.8991 6.50152 12.0606 6.37093C13.1354 5.43671 14.3499 4.67399 15.6606 4.11008C17.8368 3.19388 20.2172 2.86108 22.5636 3.14498C21.87 2.58957 21.1041 2.12967 20.2866 1.77774ZM44.5866 4.59264C44.1474 3.53059 43.3988 2.62297 42.4367 1.98612C41.4746 1.34928 40.3428 1.01222 39.1866 1.01817C38.4373 1.01846 37.6949 1.16102 36.9996 1.43817H36.9276C36.6139 1.56182 36.3126 1.71441 36.0276 1.89391C35.6763 2.11751 35.3504 2.37817 35.0556 2.67136L30.6726 7.02327L30.0336 7.64881L29.9796 7.71136C29.6091 8.05035 29.1205 8.23329 28.6168 8.22162C28.1132 8.20995 27.6337 8.00459 27.2796 7.64881L23.9766 4.29774C23.0043 4.06322 22.0071 3.9462 21.0066 3.94923C19.4308 3.95894 17.8708 4.26205 16.4076 4.84285C18.116 4.87467 19.7453 5.56343 20.9526 6.76413L26.7666 12.5369C27.0195 12.7907 27.321 12.9918 27.6532 13.1284C27.9855 13.265 28.3419 13.3343 28.7016 13.3322C29.0627 13.3355 29.4208 13.2668 29.7547 13.1302C30.0887 12.9935 30.3916 12.7918 30.6456 12.5369L32.3106 10.8837L33.0306 10.1688L37.5306 5.70072L37.8006 5.43264C37.8691 5.36281 37.9445 5.29994 38.0256 5.24498C38.5595 4.77769 39.2008 4.44771 39.8931 4.28402C40.5855 4.12033 41.3077 4.12794 41.9964 4.30617C42.6852 4.48441 43.3192 4.82782 43.843 5.30625C44.3668 5.78467 44.7643 6.38348 45.0006 7.05008C45.0006 6.95179 45.0006 6.85349 45.0006 6.75519C45.0005 6.01408 44.8569 5.27991 44.5776 4.59264H44.5866ZM40.8966 5.12881C40.7003 5.12849 40.5045 5.14644 40.3116 5.18242C40.4047 5.24627 40.492 5.31803 40.5726 5.39689C40.9244 5.75563 41.1213 6.23658 41.1213 6.73732C41.1213 7.23805 40.9244 7.71901 40.5726 8.07774L33.4266 15.1999V15.2446C33.3006 15.3697 33.1656 15.4948 33.0396 15.602C31.609 16.8692 29.9253 17.8227 28.0985 18.4001C26.2717 18.9775 24.3427 19.166 22.4376 18.9531C23.8847 20.0186 25.5831 20.6973 27.3702 20.9242C29.1572 21.1511 30.973 20.9185 32.6436 20.2488L33.1836 20.0165C33.5819 19.8261 33.9695 19.6143 34.3446 19.382C34.9978 18.979 35.6018 18.5022 36.1446 17.9611L43.1016 11.0535L43.3266 10.8301C43.4061 10.7571 43.4812 10.6795 43.5516 10.5977C43.9525 10.104 44.2045 9.5077 44.2784 8.87775C44.3524 8.2478 44.2452 7.60993 43.9694 7.03789C43.6936 6.46585 43.2603 5.98301 42.7197 5.64517C42.1792 5.30734 41.5533 5.12832 40.9146 5.12881H40.8966ZM28.6386 17.1658C26.9074 17.1541 25.2511 16.4635 24.0306 15.2446L18.2346 9.49859C17.9802 9.23977 17.6766 9.03379 17.3413 8.89265C17.006 8.7515 16.6458 8.67801 16.2816 8.67647C15.9204 8.6732 15.5623 8.74191 15.2284 8.87852C14.8945 9.01513 14.5916 9.21687 14.3376 9.47179L12.6006 11.1697L11.8806 11.8846L10.2156 13.5467L9.52258 14.2348L8.40658 15.3697L7.38058 16.3794L7.20058 16.585C6.99799 16.786 6.75299 16.9399 6.48325 17.0355C6.21351 17.1311 5.92576 17.166 5.64076 17.1378C5.35576 17.1096 5.08062 17.0189 4.8352 16.8723C4.58978 16.7257 4.3802 16.5269 4.22158 16.2901C4.17789 16.4987 4.15677 16.7114 4.15858 16.9246C4.15857 17.3665 4.2464 17.8042 4.41703 18.2124C4.58765 18.6207 4.83772 18.9915 5.15291 19.3036C5.46809 19.6157 5.84221 19.863 6.25381 20.0314C6.66542 20.1997 7.10643 20.2857 7.55158 20.2846C7.67742 20.2933 7.80373 20.2933 7.92958 20.2846C8.23946 20.2463 8.54241 20.1651 8.82958 20.0433C9.19211 19.8916 9.52435 19.6768 9.81057 19.4088H9.85557V19.3641L9.91858 19.3105L11.7996 17.4339L14.2386 15.0211L14.9046 14.3509C15.2659 14.0016 15.7503 13.8061 16.2546 13.8061C16.7589 13.8061 17.2433 14.0016 17.6046 14.3509L21.0336 17.7556C23.5572 18.3328 26.1982 18.1302 28.6026 17.1748L28.6386 17.1658Z" fill="#007AFF"/>
</svg>
