<svg width="46" height="21" viewBox="0 0 46 21" fill="none" xmlns="http://www.w3.org/2000/svg">
<path d="M20.8151 1.72007C18.2737 0.7118 15.4183 0.7118 12.8769 1.72007C12.7128 1.7864 12.5488 1.85747 12.3848 1.93064C11.9887 2.11273 11.6051 2.31914 11.2365 2.54867C10.616 2.93454 10.0399 3.38295 9.51803 3.88632L2.42898 10.7109C1.35193 11.7473 0.746094 13.1547 0.746094 14.6207C0.746094 17.653 3.33778 20.1482 6.4873 20.1482C6.48802 20.1482 6.48867 20.1482 6.48938 20.1482C6.55882 20.1482 6.62827 20.1482 6.69771 20.1445C5.00459 19.5464 3.8726 17.9856 3.8726 16.2492C3.8726 15.1145 4.35606 14.028 5.20936 13.2452L11.137 7.53971L11.7658 6.93173L11.9785 6.72693L12.2202 6.49372C12.3679 6.35332 12.5208 6.21929 12.6789 6.09153C15.129 4.03298 18.2741 2.89964 21.5259 2.90348C22.0558 2.90327 22.5852 2.9328 23.1115 2.99192C22.4062 2.47449 21.6342 2.04704 20.8151 1.72007ZM44.839 4.41591C43.6531 1.60625 40.2772 0.232277 37.3579 1.37105L37.2841 1.40053C36.9833 1.52224 36.6938 1.66879 36.4191 1.83852C36.0711 2.05314 35.7483 2.3034 35.4563 2.58499L31.1192 6.76115L30.4931 7.36181C30.474 7.37969 30.4548 7.39758 30.4351 7.41446C29.6848 8.07947 28.5073 8.05608 27.786 7.36181L24.4589 4.15848C21.9705 3.58389 19.3582 3.75551 16.974 4.65017C18.6637 4.67775 20.2772 5.33916 21.469 6.49267L27.2228 12.0317C28.2754 13.0427 30.0048 13.0427 31.0574 12.0317L38.1601 5.19344C38.229 5.12711 38.3033 5.06589 38.3815 5.01024C39.1624 4.36622 40.157 4.01203 41.1849 4.01203C43.0073 4.01203 44.6416 5.12511 45.248 6.77957C45.2529 6.68534 45.2552 6.59164 45.2552 6.4974C45.2573 5.78399 45.1157 5.07684 44.8379 4.41538L44.839 4.41591ZM41.1876 4.93549C40.9935 4.93533 40.8 4.95155 40.6086 4.98393C40.701 5.04562 40.7879 5.11522 40.8677 5.19186C41.227 5.53731 41.4287 6.00641 41.4287 6.49503C41.4287 6.98367 41.227 7.45277 40.8677 7.79822L33.8099 14.5949L33.7645 14.6381C33.6399 14.7581 33.5113 14.8724 33.379 14.9808C30.913 17.0996 27.7197 18.2698 24.4146 18.2657C23.9214 18.2658 23.4285 18.2403 22.9383 18.1894C25.8449 20.2689 29.6781 20.7422 33.0357 19.436C33.215 19.3658 33.3915 19.2914 33.5649 19.2128C34.6441 18.7238 35.6268 18.0577 36.4689 17.2444L43.3561 10.6167L43.5749 10.4061C43.652 10.3317 43.7269 10.2556 43.799 10.1777C44.2753 9.60583 44.535 8.89433 44.535 8.16144C44.535 6.39291 43.0232 4.9376 41.1865 4.9376C41.1855 4.9376 41.1849 4.9376 41.1844 4.9376L41.1876 4.93549ZM29.0715 16.479C27.3607 16.4645 25.7228 15.8023 24.514 14.6365L18.7876 9.12376C18.2756 8.62421 17.5782 8.34012 16.8493 8.33413C16.1286 8.33123 15.4361 8.60668 14.9278 9.09847L13.2383 10.7262L12.5275 11.4105L10.8757 13.0015L10.1905 13.661L9.05927 14.7529L8.04824 15.7267L7.84543 15.9226C7.48662 16.2682 6.99938 16.4626 6.49184 16.4626C5.98432 16.4626 5.49709 16.2682 5.13829 15.9226C5.04795 15.8361 4.96703 15.741 4.89661 15.6388C4.85658 15.8394 4.83646 16.0432 4.83646 16.2474C4.83646 18.0161 6.34733 19.4719 8.18443 19.4734C8.3101 19.4734 8.43565 19.4667 8.56058 19.4533C9.27204 19.376 9.93927 19.0807 10.4634 18.6111C10.4782 18.5979 10.4929 18.5847 10.5072 18.5705L10.5509 18.5289L10.6088 18.4731L12.4745 16.6764L15.5064 13.7574C16.2514 13.0559 17.4616 13.0625 18.1982 13.7721L21.5882 17.036C24.0829 17.5897 26.6948 17.3953 29.0715 16.479Z" fill="white"/>
</svg>
