<svg width="53" height="52" viewBox="0 0 53 52" fill="none" xmlns="http://www.w3.org/2000/svg">
<path d="M26.5001 51.9259C40.8186 51.9259 52.4261 40.3185 52.4261 26C52.4261 11.6815 40.8186 0.0740967 26.5001 0.0740967C12.1816 0.0740967 0.574219 11.6815 0.574219 26C0.574219 40.3185 12.1816 51.9259 26.5001 51.9259Z" fill="#ACD3F7"/>
<mask id="mask0_938_443" style="mask-type:alpha" maskUnits="userSpaceOnUse" x="0" y="0" width="53" height="52">
<path d="M26.5001 51.9259C40.8186 51.9259 52.4261 40.3185 52.4261 26C52.4261 11.6815 40.8186 0.0740967 26.5001 0.0740967C12.1816 0.0740967 0.574219 11.6815 0.574219 26C0.574219 40.3185 12.1816 51.9259 26.5001 51.9259Z" fill="#ACD3F7"/>
</mask>
<g mask="url(#mask0_938_443)">
<path d="M20.019 11.3519C20.019 10.4928 20.7155 9.79639 21.5746 9.79639H55.6C56.4591 9.79639 57.1555 10.4928 57.1555 11.3519V30.5227C57.1555 31.3818 56.4591 32.0783 55.6 32.0783H21.5746C20.7155 32.0783 20.019 31.3818 20.019 30.5227V11.3519Z" fill="#22273C"/>
<path d="M52.6601 18.4787H36.1651C35.3137 18.4727 34.4941 18.1585 33.8613 17.5958L31.3436 15.3387C30.7092 14.7705 29.8836 14.4558 29.0273 14.4557H16.9335C16.7368 14.4549 16.5419 14.4924 16.3598 14.566C16.1777 14.6396 16.0121 14.7479 15.8724 14.8847C15.7327 15.0216 15.6217 15.1843 15.5456 15.3635C15.4696 15.5427 15.43 15.735 15.4292 15.9294V39.6386C15.4309 40.0998 15.6171 40.5417 15.9472 40.8679C16.2774 41.194 16.7247 41.378 17.1916 41.3796H52.6601C53.127 41.378 53.5743 41.194 53.9045 40.8679C54.2346 40.5417 54.4209 40.0998 54.4225 39.6386V20.2198C54.4209 19.7585 54.2346 19.3167 53.9045 18.9905C53.5743 18.6643 53.127 18.4804 52.6601 18.4787Z" fill="#007AFF"/>
<path d="M39.5687 28.3818H34.0134C33.5416 28.3818 33.0698 27.9175 33.0698 27.4533C33.0698 26.9891 33.5416 26.5249 34.0134 26.5249L39.5687 26.5249C40.0405 26.5249 40.5123 26.9891 40.5123 27.4533C40.5123 27.9175 40.2764 28.3818 39.5687 28.3818Z" fill="#EEF6FF"/>
<path d="M44.675 33.024H34.0134C33.5416 33.024 33.0698 32.5597 33.0698 32.0955C33.0698 31.6313 33.5416 31.1671 34.0134 31.1671H44.675C45.1468 31.1671 45.6185 31.6313 45.6185 32.0955C45.6185 32.5597 45.3826 33.024 44.675 33.024Z" fill="#EEF6FF"/>
</g>
<path d="M29.6113 34.5597C29.6113 40.5734 24.7362 45.4486 18.7224 45.4486C12.7086 45.4486 7.8335 40.5734 7.8335 34.5597C7.8335 28.5459 12.7086 23.6708 18.7224 23.6708C24.7362 23.6708 29.6113 28.5459 29.6113 34.5597Z" fill="#FF9800"/>
<path d="M25.2522 31.7922C25.0756 31.3708 24.8624 30.9657 24.6149 30.5817C24.3572 30.2063 24.0637 29.8567 23.7385 29.538C23.4215 29.2132 23.072 28.9218 22.6956 28.6682C22.3149 28.4114 21.9098 28.1929 21.4861 28.0159C20.6127 27.6475 19.6745 27.4578 18.7267 27.4578C17.7788 27.4578 16.8406 27.6475 15.9672 28.0159C15.5458 28.1929 15.1431 28.4114 14.7649 28.6682C14.3853 28.9234 14.0312 29.2147 13.7075 29.538C13.384 29.8582 13.0906 30.2076 12.8312 30.5817C12.576 30.9636 12.3578 31.3689 12.1793 31.7922C11.8112 32.6662 11.6216 33.6051 11.6216 34.5536C11.6216 35.5022 11.8112 36.4411 12.1793 37.3151C12.531 38.1587 13.0454 38.9247 13.693 39.5693C14.0167 39.8926 14.3708 40.1839 14.7505 40.439C15.1284 40.6982 15.5312 40.9191 15.9527 41.0986C17.0399 41.5606 18.2255 41.7422 19.4009 41.627C20.5764 41.5118 21.7042 41.1033 22.6811 40.439C23.4343 39.9213 24.0891 39.2734 24.6149 38.5256C24.8689 38.143 25.0871 37.7378 25.2667 37.3151C25.6348 36.4411 25.8245 35.5022 25.8245 34.5536C25.8245 33.6051 25.6348 32.6662 25.2667 31.7922H25.2522ZM12.4256 34.5536C12.4224 33.6601 12.6075 32.776 12.9688 31.9589L15.9672 40.1854C14.9093 39.6725 14.0165 38.8727 13.3904 37.8771C12.7643 36.8815 12.43 35.73 12.4256 34.5536ZM18.7122 40.8522C18.1112 40.8514 17.5135 40.7635 16.9377 40.5913L18.8208 35.1045L20.7473 40.4028C20.7583 40.4349 20.7755 40.4645 20.798 40.4898C20.1282 40.7276 19.4229 40.8501 18.7122 40.8522ZM19.5813 31.6037C19.9579 31.6037 20.3055 31.5457 20.3055 31.5457C20.3747 31.539 20.4383 31.505 20.4825 31.4514C20.5266 31.3977 20.5477 31.3286 20.5409 31.2594C20.5342 31.1902 20.5003 31.1265 20.4466 31.0823C20.393 31.0382 20.324 31.0171 20.2548 31.0239C20.2548 31.0239 19.2409 31.1036 18.5818 31.1036C17.9227 31.1036 16.9232 31.0239 16.9232 31.0239C16.8541 31.0191 16.7859 31.0419 16.7336 31.0875C16.6813 31.133 16.6492 31.1975 16.6444 31.2667C16.6396 31.3359 16.6625 31.4041 16.708 31.4565C16.7535 31.5088 16.8179 31.5409 16.887 31.5457C16.887 31.5457 17.2129 31.5892 17.5461 31.6037L18.5239 34.2927L17.155 38.4168L14.8591 31.6037C15.2357 31.6037 15.5834 31.5457 15.5834 31.5457C15.6525 31.5457 15.7188 31.5182 15.7677 31.4693C15.8166 31.4204 15.8441 31.354 15.8441 31.2848C15.8441 31.2156 15.8166 31.1492 15.7677 31.1003C15.7188 31.0513 15.6525 31.0239 15.5834 31.0239C15.5834 31.0239 14.5694 31.1036 13.9103 31.1036H13.4613C13.9607 30.3422 14.6195 29.6986 15.3922 29.2172C16.1648 28.7359 17.0327 28.4284 17.9359 28.3161C18.839 28.2037 19.7558 28.2891 20.6226 28.5664C21.4895 28.8438 22.2858 29.3063 22.9563 29.9222H22.8767C22.734 29.9259 22.5934 29.9578 22.4631 30.0159C22.3327 30.074 22.215 30.1573 22.1168 30.261C22.0186 30.3646 21.9418 30.4867 21.8908 30.62C21.8397 30.7534 21.8154 30.8956 21.8192 31.0384C21.8894 31.5685 22.1022 32.0695 22.4349 32.488C22.7692 33.0043 22.95 33.605 22.9563 34.2202C22.9095 34.935 22.7557 35.6386 22.5001 36.3077L21.8482 38.3661L19.5813 31.6037ZM21.8772 39.9969L23.7965 34.4377C24.1027 33.7252 24.2651 32.9591 24.2745 32.1835C24.2754 31.9653 24.2609 31.7474 24.231 31.5312C25.0144 32.9719 25.2068 34.6611 24.7675 36.2412C24.3282 37.8213 23.2916 39.1683 21.8772 39.9969Z" fill="white"/>
</svg>
