<svg width="24" height="24" viewBox="0 0 24 24" fill="none" xmlns="http://www.w3.org/2000/svg">
<rect width="24" height="24" rx="12" fill="#F43636"/>
<path d="M12.4733 16.5266C12.4085 16.4678 12.3341 16.4204 12.2533 16.3866C12.1319 16.3356 11.998 16.3216 11.8687 16.3466C11.7394 16.3715 11.6203 16.4341 11.5266 16.5266C11.4048 16.6544 11.3357 16.8235 11.3333 17C11.3328 17.0877 11.3496 17.1747 11.3827 17.2559C11.4159 17.3371 11.4648 17.411 11.5266 17.4733C11.5914 17.5322 11.6658 17.5796 11.7466 17.6133C11.8677 17.6618 12.0005 17.6737 12.1283 17.6475C12.2561 17.6212 12.3735 17.5581 12.4657 17.4658C12.558 17.3735 12.6212 17.2562 12.6474 17.1284C12.6736 17.0005 12.6618 16.8678 12.6133 16.7466C12.5815 16.6648 12.534 16.5901 12.4733 16.5266ZM11.9999 12.3333C11.8231 12.3333 11.6535 12.4036 11.5285 12.5286C11.4035 12.6536 11.3333 12.8232 11.3333 13V15C11.3333 15.1768 11.4035 15.3464 11.5285 15.4714C11.6535 15.5964 11.8231 15.6666 11.9999 15.6666C12.1767 15.6666 12.3463 15.5964 12.4713 15.4714C12.5964 15.3464 12.6666 15.1768 12.6666 15V13C12.6666 12.8232 12.5964 12.6536 12.4713 12.5286C12.3463 12.4036 12.1767 12.3333 11.9999 12.3333ZM16.2799 9.13998C15.8721 8.20385 15.1686 7.42731 14.2771 6.92942C13.3856 6.43153 12.3554 6.23976 11.3445 6.38353C10.3336 6.5273 9.39773 6.99866 8.68041 7.72535C7.96308 8.45204 7.5039 9.39395 7.37326 10.4066C6.73765 10.5589 6.18007 10.9392 5.80642 11.4754C5.43276 12.0117 5.26905 12.6665 5.34637 13.3155C5.42369 13.9645 5.73666 14.5624 6.22584 14.9959C6.71502 15.4293 7.34635 15.668 7.99993 15.6666H9.33326C9.51007 15.6666 9.67964 15.5964 9.80466 15.4714C9.92969 15.3464 9.99993 15.1768 9.99993 15C9.99993 14.8232 9.92969 14.6536 9.80466 14.5286C9.67964 14.4036 9.51007 14.3333 9.33326 14.3333H7.99993C7.6463 14.3333 7.30717 14.1928 7.05712 13.9428C6.80707 13.6927 6.66659 13.3536 6.66659 13C6.66659 12.6464 6.80707 12.3072 7.05712 12.0572C7.30717 11.8071 7.6463 11.6666 7.99993 11.6666C8.17674 11.6666 8.34631 11.5964 8.47133 11.4714C8.59636 11.3464 8.66659 11.1768 8.66659 11C8.6683 10.2115 8.94945 9.44915 9.46011 8.84837C9.97076 8.24759 10.6779 7.84728 11.4558 7.71856C12.2337 7.58985 13.032 7.74105 13.709 8.14532C14.3859 8.54959 14.8977 9.18074 15.1533 9.92665C15.1924 10.04 15.2613 10.1406 15.3528 10.2181C15.4443 10.2955 15.555 10.3468 15.6733 10.3666C16.1619 10.4568 16.5995 10.7257 16.9008 11.1208C17.2021 11.516 17.3455 12.0092 17.303 12.5042C17.2606 12.9993 17.0354 13.4609 16.6712 13.799C16.3071 14.1372 15.8301 14.3276 15.3333 14.3333H14.6666C14.4898 14.3333 14.3202 14.4036 14.1952 14.5286C14.0702 14.6536 13.9999 14.8232 13.9999 15C13.9999 15.1768 14.0702 15.3464 14.1952 15.4714C14.3202 15.5964 14.4898 15.6666 14.6666 15.6666H15.3333C16.1328 15.6644 16.905 15.3749 17.5089 14.8508C18.1127 14.3268 18.5081 13.6031 18.6229 12.8118C18.7377 12.0205 18.5642 11.2143 18.1341 10.5403C17.704 9.86625 17.0459 9.36926 16.2799 9.13998Z" fill="white"/>
</svg>
