<svg width="24" height="24" viewBox="0 0 24 24" fill="none" xmlns="http://www.w3.org/2000/svg">
<rect width="24" height="24" rx="12" fill="#007AFF"/>
<path d="M17.9999 13.3333H17.3333V6.66665H17.9999C18.1767 6.66665 18.3463 6.59641 18.4713 6.47138C18.5963 6.34636 18.6666 6.17679 18.6666 5.99998C18.6666 5.82317 18.5963 5.6536 18.4713 5.52858C18.3463 5.40355 18.1767 5.33331 17.9999 5.33331H5.99992C5.82311 5.33331 5.65354 5.40355 5.52851 5.52858C5.40349 5.6536 5.33325 5.82317 5.33325 5.99998C5.33325 6.17679 5.40349 6.34636 5.52851 6.47138C5.65354 6.59641 5.82311 6.66665 5.99992 6.66665H6.66659V13.3333H5.99992C5.82311 13.3333 5.65354 13.4036 5.52851 13.5286C5.40349 13.6536 5.33325 13.8232 5.33325 14C5.33325 14.1768 5.40349 14.3464 5.52851 14.4714C5.65354 14.5964 5.82311 14.6666 5.99992 14.6666H11.3333V15.4333L8.29992 17.4333C8.17547 17.5103 8.07984 17.6262 8.02776 17.763C7.97569 17.8997 7.97007 18.0499 8.01178 18.1901C8.05349 18.3304 8.1402 18.4531 8.25854 18.5392C8.37688 18.6253 8.52027 18.6701 8.66659 18.6666C8.79765 18.6681 8.92589 18.6285 9.03325 18.5533L11.3333 17.0333V18C11.3333 18.1768 11.4035 18.3464 11.5285 18.4714C11.6535 18.5964 11.8231 18.6666 11.9999 18.6666C12.1767 18.6666 12.3463 18.5964 12.4713 18.4714C12.5963 18.3464 12.6666 18.1768 12.6666 18V17.0333L14.9666 18.5533C15.0739 18.6285 15.2022 18.6681 15.3333 18.6666C15.4757 18.6655 15.614 18.6189 15.728 18.5334C15.842 18.448 15.9256 18.3283 15.9666 18.1919C16.0076 18.0555 16.0038 17.9095 15.9558 17.7754C15.9078 17.6413 15.8181 17.5261 15.6999 17.4466L12.6666 15.4466V14.6666H17.9999C18.1767 14.6666 18.3463 14.5964 18.4713 14.4714C18.5963 14.3464 18.6666 14.1768 18.6666 14C18.6666 13.8232 18.5963 13.6536 18.4713 13.5286C18.3463 13.4036 18.1767 13.3333 17.9999 13.3333ZM15.9999 13.3333H7.99992V6.66665H15.9999V13.3333ZM10.4066 12.1733C10.5843 12.2783 10.7869 12.3337 10.9933 12.3337C11.1996 12.3337 11.4022 12.2783 11.5799 12.1733L13.5799 11.0133C13.7509 10.9084 13.8921 10.7613 13.9901 10.5863C14.088 10.4112 14.1395 10.2139 14.1395 10.0133C14.1395 9.8127 14.088 9.61543 13.9901 9.44036C13.8921 9.26529 13.7509 9.11826 13.5799 9.01331L11.5799 7.85331C11.4022 7.74833 11.1996 7.69296 10.9933 7.69296C10.7869 7.69296 10.5843 7.74833 10.4066 7.85331C10.2275 7.95425 10.0791 8.10171 9.97701 8.28009C9.87491 8.45847 9.82293 8.66114 9.82659 8.86665V11.1866C9.8277 11.3876 9.88193 11.5848 9.98379 11.758C10.0856 11.9313 10.2315 12.0746 10.4066 12.1733ZM11.1599 9.11998L12.6666 9.99998L11.1466 10.88L11.1599 9.11998Z" fill="white"/>
</svg>
