<svg width="24" height="24" viewBox="0 0 24 24" fill="none" xmlns="http://www.w3.org/2000/svg">
<rect width="24" height="24" rx="12" fill="#A83232"/>
<path d="M10.6667 9.33334H14.6667C14.8435 9.33334 15.013 9.26311 15.1381 9.13808C15.2631 9.01306 15.3333 8.84349 15.3333 8.66668C15.3333 8.48987 15.2631 8.3203 15.1381 8.19527C15.013 8.07025 14.8435 8.00001 14.6667 8.00001H10.6667C10.4899 8.00001 10.3203 8.07025 10.1953 8.19527C10.0702 8.3203 10 8.48987 10 8.66668C10 8.84349 10.0702 9.01306 10.1953 9.13808C10.3203 9.26311 10.4899 9.33334 10.6667 9.33334ZM9.33333 12H14.6667C14.8435 12 15.013 11.9298 15.1381 11.8047C15.2631 11.6797 15.3333 11.5102 15.3333 11.3333C15.3333 11.1565 15.2631 10.987 15.1381 10.8619C15.013 10.7369 14.8435 10.6667 14.6667 10.6667H9.33333C9.15652 10.6667 8.98695 10.7369 8.86193 10.8619C8.7369 10.987 8.66667 11.1565 8.66667 11.3333C8.66667 11.5102 8.7369 11.6797 8.86193 11.8047C8.98695 11.9298 9.15652 12 9.33333 12ZM9.33333 14.6667H14.6667C14.8435 14.6667 15.013 14.5964 15.1381 14.4714C15.2631 14.3464 15.3333 14.1768 15.3333 14C15.3333 13.8232 15.2631 13.6536 15.1381 13.5286C15.013 13.4036 14.8435 13.3333 14.6667 13.3333H9.33333C9.15652 13.3333 8.98695 13.4036 8.86193 13.5286C8.7369 13.6536 8.66667 13.8232 8.66667 14C8.66667 14.1768 8.7369 14.3464 8.86193 14.4714C8.98695 14.5964 9.15652 14.6667 9.33333 14.6667ZM17.3333 5.33334H6.66667C6.48986 5.33334 6.32029 5.40358 6.19526 5.52861C6.07024 5.65363 6 5.8232 6 6.00001V18C6 18.1238 6.03448 18.2452 6.09957 18.3505C6.16466 18.4558 6.25779 18.5409 6.36852 18.5963C6.47926 18.6517 6.60323 18.6751 6.72654 18.664C6.84984 18.6529 6.96762 18.6076 7.06667 18.5333L8.44667 17.5L9.82 18.5333C9.9354 18.6199 10.0758 18.6667 10.22 18.6667C10.3642 18.6667 10.5046 18.6199 10.62 18.5333L12 17.5L13.38 18.5333C13.4954 18.6199 13.6358 18.6667 13.78 18.6667C13.9242 18.6667 14.0646 18.6199 14.18 18.5333L15.5533 17.5L16.9333 18.5333C17.0329 18.6075 17.1511 18.6524 17.2748 18.663C17.3985 18.6736 17.5226 18.6495 17.6333 18.5933C17.7433 18.5379 17.8357 18.4532 17.9005 18.3485C17.9652 18.2437 17.9996 18.1231 18 18V6.00001C18 5.8232 17.9298 5.65363 17.8047 5.52861C17.6797 5.40358 17.5101 5.33334 17.3333 5.33334ZM16.6667 16.6667L15.9533 16.1333C15.8379 16.0468 15.6976 16 15.5533 16C15.4091 16 15.2687 16.0468 15.1533 16.1333L13.78 17.1667L12.4 16.1333C12.2846 16.0468 12.1442 16 12 16C11.8558 16 11.7154 16.0468 11.6 16.1333L10.22 17.1667L8.84667 16.1333C8.73127 16.0468 8.59091 16 8.44667 16C8.30242 16 8.16206 16.0468 8.04667 16.1333L7.33333 16.6667V6.66668H16.6667V16.6667Z" fill="white"/>
</svg>
