<svg width="24" height="24" viewBox="0 0 24 24" fill="none" xmlns="http://www.w3.org/2000/svg">
<rect width="24" height="24" rx="12" fill="#00897B"/>
<path d="M18.6667 10.4466C18.6246 10.3247 18.5481 10.2176 18.4463 10.1383C18.3445 10.059 18.2219 10.011 18.0934 9.99997L14.3001 9.44664L12.6001 5.99997C12.5455 5.88726 12.4602 5.7922 12.3541 5.72569C12.248 5.65918 12.1253 5.6239 12.0001 5.6239C11.8748 5.6239 11.7521 5.65918 11.646 5.72569C11.5399 5.7922 11.4547 5.88726 11.4001 5.99997L9.70007 9.43997L5.90673 9.99997C5.78335 10.0175 5.66735 10.0693 5.5719 10.1494C5.47645 10.2295 5.40537 10.3348 5.36673 10.4533C5.33136 10.5691 5.32819 10.6923 5.35755 10.8098C5.38691 10.9272 5.4477 11.0345 5.5334 11.12L8.28673 13.7866L7.62007 17.5733C7.59627 17.6983 7.60873 17.8275 7.65598 17.9456C7.70323 18.0637 7.7833 18.1659 7.88673 18.24C7.98754 18.312 8.10645 18.3546 8.2301 18.3628C8.35375 18.3711 8.47725 18.3447 8.58673 18.2866L12.0001 16.5066L15.4001 18.2933C15.4936 18.3461 15.5993 18.3737 15.7067 18.3733C15.8479 18.3738 15.9857 18.3295 16.1001 18.2466C16.2035 18.1725 16.2836 18.0704 16.3308 17.9523C16.3781 17.8341 16.3905 17.705 16.3667 17.58L15.7001 13.7933L18.4534 11.1266C18.5497 11.0451 18.6208 10.9379 18.6586 10.8175C18.6963 10.6972 18.6992 10.5686 18.6667 10.4466ZM14.5667 13.1133C14.4885 13.1889 14.4301 13.2825 14.3964 13.386C14.3627 13.4894 14.3548 13.5995 14.3734 13.7066L14.8534 16.5L12.3467 15.1666C12.2503 15.1153 12.1427 15.0884 12.0334 15.0884C11.9241 15.0884 11.8165 15.1153 11.7201 15.1666L9.2134 16.5L9.6934 13.7066C9.71202 13.5995 9.70414 13.4894 9.67044 13.386C9.63674 13.2825 9.57825 13.1889 9.50007 13.1133L7.50007 11.1133L10.3067 10.7066C10.4147 10.6916 10.5174 10.6503 10.6057 10.5864C10.6941 10.5225 10.7654 10.4379 10.8134 10.34L12.0001 7.79997L13.2534 10.3466C13.3014 10.4445 13.3727 10.5292 13.4611 10.5931C13.5494 10.657 13.6521 10.6983 13.7601 10.7133L16.5667 11.12L14.5667 13.1133Z" fill="white"/>
</svg>
