<svg width="24" height="24" viewBox="0 0 24 24" fill="none" xmlns="http://www.w3.org/2000/svg">
<rect width="24" height="24" rx="12" fill="#FF9800"/>
<path d="M13.5267 13.46L11.3334 15.6533L10.4734 14.7933C10.4114 14.7308 10.3377 14.6812 10.2564 14.6474C10.1752 14.6136 10.0881 14.5961 10 14.5961C9.91203 14.5961 9.8249 14.6136 9.74366 14.6474C9.66242 14.6812 9.58868 14.7308 9.52671 14.7933C9.40254 14.9182 9.33285 15.0872 9.33285 15.2633C9.33285 15.4394 9.40254 15.6084 9.52671 15.7333L10.86 17.0667C10.922 17.1291 10.9958 17.1787 11.077 17.2126C11.1582 17.2464 11.2454 17.2639 11.3334 17.2639C11.4214 17.2639 11.5085 17.2464 11.5898 17.2126C11.671 17.1787 11.7447 17.1291 11.8067 17.0667L14.4734 14.4C14.5975 14.2751 14.6672 14.1061 14.6672 13.93C14.6672 13.7539 14.5975 13.5849 14.4734 13.46C14.4114 13.3975 14.3377 13.3479 14.2564 13.3141C14.1752 13.2802 14.0881 13.2628 14 13.2628C13.912 13.2628 13.8249 13.2802 13.7437 13.3141C13.6624 13.3479 13.5887 13.3975 13.5267 13.46ZM16.28 9.54666C15.8722 8.61053 15.1687 7.83399 14.2772 7.3361C13.3857 6.8382 12.3555 6.64644 11.3446 6.79021C10.3337 6.93398 9.39784 7.40534 8.68052 8.13203C7.9632 8.85872 7.50402 9.80063 7.37338 10.8133C6.81737 10.9513 6.32057 11.2646 5.95654 11.7069C5.5925 12.1493 5.38058 12.6971 5.35216 13.2692C5.32374 13.8414 5.48033 14.4075 5.79874 14.8837C6.11714 15.3599 6.58045 15.721 7.12004 15.9133C7.2052 15.958 7.29901 15.9837 7.39505 15.9888C7.49108 15.9938 7.58707 15.9779 7.67641 15.9424C7.76576 15.9068 7.84635 15.8523 7.91266 15.7827C7.97896 15.713 8.02942 15.6299 8.06056 15.5389C8.0917 15.4479 8.10279 15.3512 8.09306 15.2556C8.08333 15.1599 8.05302 15.0675 8.00421 14.9846C7.95539 14.9017 7.88923 14.8304 7.81026 14.7755C7.73129 14.7207 7.64139 14.6835 7.54671 14.6667C7.28686 14.5727 7.06262 14.4004 6.90497 14.1735C6.74733 13.9466 6.66407 13.6763 6.66671 13.4C6.66671 13.0464 6.80719 12.7072 7.05723 12.4572C7.30728 12.2071 7.64642 12.0667 8.00004 12.0667C8.17685 12.0667 8.34642 11.9964 8.47145 11.8714C8.59647 11.7464 8.66671 11.5768 8.66671 11.4C8.66997 10.6121 8.95224 9.85079 9.46342 9.2512C9.97461 8.65161 10.6817 8.25249 11.4591 8.12464C12.2366 7.99679 13.0343 8.14848 13.7105 8.55281C14.3868 8.95713 14.898 9.58795 15.1534 10.3333C15.1925 10.4466 15.2614 10.5473 15.3529 10.6248C15.4445 10.7022 15.5551 10.7535 15.6734 10.7733C16.1174 10.8572 16.52 11.0891 16.8154 11.431C17.1108 11.773 17.2818 12.2049 17.3003 12.6564C17.3189 13.1079 17.184 13.5524 16.9176 13.9175C16.6512 14.2825 16.269 14.5466 15.8334 14.6667C15.6566 14.6888 15.4958 14.7802 15.3864 14.9208C15.277 15.0615 15.2279 15.2398 15.25 15.4167C15.2721 15.5935 15.3636 15.7543 15.5042 15.8637C15.6449 15.9731 15.8232 16.0221 16 16H16.1667C16.8683 15.8146 17.4902 15.4053 17.938 14.8343C18.3859 14.2633 18.6351 13.5617 18.6479 12.8362C18.6608 12.1106 18.4365 11.4007 18.0091 10.8142C17.5817 10.2277 16.9746 9.79672 16.28 9.58666V9.54666Z" fill="white"/>
</svg>
