<svg width="24" height="24" viewBox="0 0 24 24" fill="none" xmlns="http://www.w3.org/2000/svg">
<rect width="24" height="24" rx="12" fill="#00BFA6"/>
<path d="M16 8.66667H15.7667C15.9188 8.35518 15.9986 8.01333 16 7.66667C16.002 7.20222 15.865 6.7478 15.6065 6.36189C15.3481 5.97599 14.9801 5.67626 14.5498 5.5013C14.1196 5.32633 13.6468 5.28414 13.1924 5.38015C12.738 5.47615 12.3227 5.70597 12 6.04C11.6773 5.70597 11.262 5.47615 10.8076 5.38015C10.3532 5.28414 9.88041 5.32633 9.45017 5.5013C9.01993 5.67626 8.6519 5.97599 8.39346 6.36189C8.13502 6.7478 7.99798 7.20222 8 7.66667C8.00142 8.01333 8.08119 8.35518 8.23333 8.66667H8C7.46957 8.66667 6.96086 8.87739 6.58579 9.25246C6.21071 9.62753 6 10.1362 6 10.6667V12C6 12.1768 6.07024 12.3464 6.19526 12.4714C6.32029 12.5964 6.48986 12.6667 6.66667 12.6667H7.33333V16.6667C7.33333 17.1971 7.54405 17.7058 7.91912 18.0809C8.29419 18.456 8.8029 18.6667 9.33333 18.6667H14.6667C15.1971 18.6667 15.7058 18.456 16.0809 18.0809C16.456 17.7058 16.6667 17.1971 16.6667 16.6667V12.6667H17.3333C17.5101 12.6667 17.6797 12.5964 17.8047 12.4714C17.9298 12.3464 18 12.1768 18 12V10.6667C18 10.1362 17.7893 9.62753 17.4142 9.25246C17.0391 8.87739 16.5304 8.66667 16 8.66667ZM11.3333 17.3333H9.33333C9.15652 17.3333 8.98695 17.2631 8.86193 17.1381C8.7369 17.0131 8.66667 16.8435 8.66667 16.6667V12.6667H11.3333V17.3333ZM11.3333 11.3333H7.33333V10.6667C7.33333 10.4899 7.40357 10.3203 7.5286 10.1953C7.65362 10.0702 7.82319 10 8 10H11.3333V11.3333ZM11.3333 8.66667H10.3333C10.1356 8.66667 9.94221 8.60802 9.77776 8.49814C9.61331 8.38826 9.48514 8.23208 9.40945 8.04935C9.33377 7.86663 9.31396 7.66556 9.35255 7.47158C9.39113 7.2776 9.48637 7.09942 9.62623 6.95956C9.76608 6.81971 9.94426 6.72447 10.1382 6.68589C10.3322 6.6473 10.5333 6.6671 10.716 6.74279C10.8987 6.81848 11.0549 6.94665 11.1648 7.1111C11.2747 7.27555 11.3333 7.46889 11.3333 7.66667V8.66667ZM12.6667 7.66667C12.6667 7.46889 12.7253 7.27555 12.8352 7.1111C12.9451 6.94665 13.1013 6.81848 13.284 6.74279C13.4667 6.6671 13.6678 6.6473 13.8618 6.68589C14.0557 6.72447 14.2339 6.81971 14.3738 6.95956C14.5136 7.09942 14.6089 7.2776 14.6475 7.47158C14.686 7.66556 14.6662 7.86663 14.5905 8.04935C14.5149 8.23208 14.3867 8.38826 14.2222 8.49814C14.0578 8.60802 13.8644 8.66667 13.6667 8.66667H12.6667V7.66667ZM15.3333 16.6667C15.3333 16.8435 15.2631 17.0131 15.1381 17.1381C15.013 17.2631 14.8435 17.3333 14.6667 17.3333H12.6667V12.6667H15.3333V16.6667ZM16.6667 11.3333H12.6667V10H16C16.1768 10 16.3464 10.0702 16.4714 10.1953C16.5964 10.3203 16.6667 10.4899 16.6667 10.6667V11.3333Z" fill="white"/>
</svg>
