<svg width="24" height="24" viewBox="0 0 24 24" fill="none" xmlns="http://www.w3.org/2000/svg">
<rect width="24" height="24" rx="12" fill="#0057B2"/>
<path d="M9.33341 15.3333C9.20156 15.3333 9.07267 15.3724 8.96303 15.4457C8.8534 15.5189 8.76795 15.6231 8.71749 15.7449C8.66704 15.8667 8.65383 16.0007 8.67956 16.1301C8.70528 16.2594 8.76878 16.3782 8.86201 16.4714C8.95525 16.5646 9.07403 16.6281 9.20335 16.6539C9.33267 16.6796 9.46672 16.6664 9.58854 16.6159C9.71035 16.5655 9.81447 16.48 9.88773 16.3704C9.96098 16.2607 10.0001 16.1319 10.0001 16C10.0001 15.8232 9.92984 15.6536 9.80482 15.5286C9.67979 15.4036 9.51023 15.3333 9.33341 15.3333ZM9.33341 11.3333C9.20156 11.3333 9.07267 11.3724 8.96303 11.4457C8.8534 11.5189 8.76795 11.6231 8.71749 11.7449C8.66704 11.8667 8.65383 12.0007 8.67956 12.1301C8.70528 12.2594 8.76878 12.3782 8.86201 12.4714C8.95525 12.5646 9.07403 12.6281 9.20335 12.6539C9.33267 12.6796 9.46672 12.6664 9.58854 12.6159C9.71035 12.5655 9.81447 12.48 9.88773 12.3704C9.96098 12.2607 10.0001 12.1319 10.0001 12C10.0001 11.8232 9.92984 11.6536 9.80482 11.5286C9.67979 11.4036 9.51023 11.3333 9.33341 11.3333ZM9.33341 7.33333C9.20156 7.33333 9.07267 7.37243 8.96303 7.44569C8.8534 7.51894 8.76795 7.62306 8.71749 7.74488C8.66704 7.8667 8.65383 8.00074 8.67956 8.13006C8.70528 8.25938 8.76878 8.37817 8.86201 8.47141C8.95525 8.56464 9.07403 8.62813 9.20335 8.65386C9.33267 8.67958 9.46672 8.66638 9.58854 8.61592C9.71035 8.56546 9.81447 8.48001 9.88773 8.37038C9.96098 8.26075 10.0001 8.13186 10.0001 8C10.0001 7.82319 9.92984 7.65362 9.80482 7.5286C9.67979 7.40357 9.51023 7.33333 9.33341 7.33333ZM17.3334 7.33333C17.3334 6.8029 17.1227 6.29419 16.7476 5.91912C16.3726 5.54405 15.8638 5.33333 15.3334 5.33333H8.66675C8.13631 5.33333 7.62761 5.54405 7.25253 5.91912C6.87746 6.29419 6.66675 6.8029 6.66675 7.33333V8.66667C6.66969 9.16004 6.85489 9.63491 7.18675 10C6.85489 10.3651 6.66969 10.84 6.66675 11.3333V12.6667C6.66969 13.16 6.85489 13.6349 7.18675 14C6.85489 14.3651 6.66969 14.84 6.66675 15.3333V16.6667C6.66675 17.1971 6.87746 17.7058 7.25253 18.0809C7.62761 18.456 8.13631 18.6667 8.66675 18.6667H15.3334C15.8638 18.6667 16.3726 18.456 16.7476 18.0809C17.1227 17.7058 17.3334 17.1971 17.3334 16.6667V15.3333C17.3305 14.84 17.1453 14.3651 16.8134 14C17.1453 13.6349 17.3305 13.16 17.3334 12.6667V11.3333C17.3305 10.84 17.1453 10.3651 16.8134 10C17.1453 9.63491 17.3305 9.16004 17.3334 8.66667V7.33333ZM16.0001 16.6667C16.0001 16.8435 15.9298 17.013 15.8048 17.1381C15.6798 17.2631 15.5102 17.3333 15.3334 17.3333H8.66675C8.48994 17.3333 8.32037 17.2631 8.19534 17.1381C8.07032 17.013 8.00008 16.8435 8.00008 16.6667V15.3333C8.00008 15.1565 8.07032 14.987 8.19534 14.8619C8.32037 14.7369 8.48994 14.6667 8.66675 14.6667H15.3334C15.5102 14.6667 15.6798 14.7369 15.8048 14.8619C15.9298 14.987 16.0001 15.1565 16.0001 15.3333V16.6667ZM16.0001 12.6667C16.0001 12.8435 15.9298 13.013 15.8048 13.1381C15.6798 13.2631 15.5102 13.3333 15.3334 13.3333H8.66675C8.48994 13.3333 8.32037 13.2631 8.19534 13.1381C8.07032 13.013 8.00008 12.8435 8.00008 12.6667V11.3333C8.00008 11.1565 8.07032 10.987 8.19534 10.8619C8.32037 10.7369 8.48994 10.6667 8.66675 10.6667H15.3334C15.5102 10.6667 15.6798 10.7369 15.8048 10.8619C15.9298 10.987 16.0001 11.1565 16.0001 11.3333V12.6667ZM16.0001 8.66667C16.0001 8.84348 15.9298 9.01305 15.8048 9.13807C15.6798 9.2631 15.5102 9.33333 15.3334 9.33333H8.66675C8.48994 9.33333 8.32037 9.2631 8.19534 9.13807C8.07032 9.01305 8.00008 8.84348 8.00008 8.66667V7.33333C8.00008 7.15652 8.07032 6.98695 8.19534 6.86193C8.32037 6.73691 8.48994 6.66667 8.66675 6.66667H15.3334C15.5102 6.66667 15.6798 6.73691 15.8048 6.86193C15.9298 6.98695 16.0001 7.15652 16.0001 7.33333V8.66667Z" fill="white"/>
</svg>
