<svg width="15" height="12" viewBox="0 0 15 12" fill="none" xmlns="http://www.w3.org/2000/svg">
<path d="M2.77954 1.05332C2.52847 0.795177 2.18513 0.647344 1.82506 0.642343C1.46499 0.637342 1.11769 0.775584 0.859541 1.02666C0.601397 1.27773 0.453564 1.62106 0.448563 1.98113C0.443562 2.3412 0.581803 2.68851 0.832874 2.94665L3.95287 5.99999L0.832874 9.05332C0.707903 9.17727 0.60871 9.32474 0.541019 9.48722C0.473327 9.6497 0.438477 9.82397 0.438477 9.99999C0.438477 10.176 0.473327 10.3503 0.541019 10.5128C0.60871 10.6752 0.707903 10.8227 0.832874 10.9467C0.956825 11.0716 1.10429 11.1708 1.26677 11.2385C1.42925 11.3062 1.60353 11.3411 1.77954 11.3411C1.95556 11.3411 2.12983 11.3062 2.29231 11.2385C2.45479 11.1708 2.60226 11.0716 2.72621 10.9467L6.72621 6.94665C6.85118 6.8227 6.95037 6.67524 7.01806 6.51276C7.08575 6.35028 7.12061 6.176 7.12061 5.99999C7.12061 5.82397 7.08575 5.6497 7.01806 5.48722C6.95037 5.32474 6.85118 5.17727 6.72621 5.05332L2.77954 1.05332ZM14.1129 5.05332L10.1129 1.05332C9.8618 0.80225 9.52128 0.661199 9.16621 0.661199C8.81114 0.661199 8.47061 0.80225 8.21954 1.05332C7.96847 1.30439 7.82742 1.64492 7.82742 1.99999C7.82742 2.35506 7.96847 2.69558 8.21954 2.94665L11.2862 5.99999L8.21954 9.05332C8.09457 9.17727 7.99538 9.32474 7.92769 9.48722C7.85999 9.6497 7.82514 9.82397 7.82514 9.99999C7.82514 10.176 7.85999 10.3503 7.92769 10.5128C7.99538 10.6752 8.09457 10.8227 8.21954 10.9467C8.34349 11.0716 8.49096 11.1708 8.65344 11.2385C8.81592 11.3062 8.99019 11.3411 9.16621 11.3411C9.34222 11.3411 9.5165 11.3062 9.67898 11.2385C9.84146 11.1708 9.98892 11.0716 10.1129 10.9467L14.1129 6.94665C14.2414 6.82626 14.3448 6.6816 14.4171 6.52102C14.4894 6.36045 14.5292 6.18714 14.5342 6.0111C14.5391 5.83507 14.5092 5.65979 14.446 5.4954C14.3828 5.33101 14.2878 5.18076 14.1662 5.05332H14.1129Z" fill="white"/>
</svg>
