<svg width="12" height="8" viewBox="0 0 12 8" fill="none" xmlns="http://www.w3.org/2000/svg">
<path d="M10.9997 1.17019C10.8123 0.983936 10.5589 0.879395 10.2947 0.879395C10.0305 0.879395 9.77707 0.983936 9.5897 1.17019L5.9997 4.71019L2.4597 1.17019C2.27234 0.983936 2.01889 0.879395 1.7547 0.879395C1.49052 0.879395 1.23707 0.983936 1.0497 1.17019C0.955976 1.26315 0.881582 1.37375 0.830813 1.49561C0.780044 1.61747 0.753906 1.74818 0.753906 1.88019C0.753906 2.0122 0.780044 2.1429 0.830813 2.26476C0.881582 2.38662 0.955976 2.49722 1.0497 2.59019L5.2897 6.83019C5.38267 6.92392 5.49327 6.99831 5.61513 7.04908C5.73699 7.09985 5.86769 7.12599 5.9997 7.12599C6.13172 7.12599 6.26242 7.09985 6.38428 7.04908C6.50614 6.99831 6.61674 6.92392 6.7097 6.83019L10.9997 2.59019C11.0934 2.49722 11.1678 2.38662 11.2186 2.26476C11.2694 2.1429 11.2955 2.0122 11.2955 1.88019C11.2955 1.74818 11.2694 1.61747 11.2186 1.49561C11.1678 1.37375 11.0934 1.26315 10.9997 1.17019Z" fill="#29384E"/>
</svg>
