<svg width="12" height="8" viewBox="0 0 12 8" fill="none" xmlns="http://www.w3.org/2000/svg">
<path d="M10.9997 6.82981C10.8123 7.01606 10.5589 7.12061 10.2947 7.12061C10.0305 7.12061 9.77707 7.01606 9.5897 6.82981L5.9997 3.28981L2.4597 6.82981C2.27234 7.01606 2.01889 7.12061 1.7547 7.12061C1.49052 7.12061 1.23707 7.01606 1.0497 6.82981C0.955976 6.73685 0.881582 6.62625 0.830813 6.50439C0.780044 6.38253 0.753906 6.25182 0.753906 6.11981C0.753906 5.9878 0.780044 5.8571 0.830813 5.73524C0.881582 5.61338 0.955976 5.50278 1.0497 5.40981L5.2897 1.16981C5.38267 1.07608 5.49327 1.00169 5.61513 0.950922C5.73699 0.900153 5.86769 0.874015 5.9997 0.874015C6.13172 0.874015 6.26242 0.900153 6.38428 0.950922C6.50614 1.00169 6.61674 1.07608 6.7097 1.16981L10.9997 5.40981C11.0934 5.50278 11.1678 5.61338 11.2186 5.73524C11.2694 5.8571 11.2955 5.9878 11.2955 6.11981C11.2955 6.25182 11.2694 6.38253 11.2186 6.50439C11.1678 6.62625 11.0934 6.73685 10.9997 6.82981Z" fill="#29384E"/>
</svg>
