<svg width="22" height="28" viewBox="0 0 22 28" fill="none" xmlns="http://www.w3.org/2000/svg">
<path d="M19.0007 15.5732V11.3332C18.9987 9.444 18.3283 7.61646 17.1081 6.1742C15.8879 4.73194 14.1967 3.76803 12.334 3.45317V1.99984C12.334 1.64622 12.1935 1.30708 11.9435 1.05703C11.6934 0.80698 11.3543 0.666504 11.0007 0.666504C10.647 0.666504 10.3079 0.80698 10.0578 1.05703C9.80779 1.30708 9.66732 1.64622 9.66732 1.99984V3.45317C7.80457 3.76803 6.11335 4.73194 4.89316 6.1742C3.67298 7.61646 3.00257 9.444 3.00065 11.3332V15.5732C2.22258 15.8483 1.54865 16.3573 1.07124 17.0304C0.593822 17.7036 0.336304 18.5079 0.333984 19.3332V21.9998C0.333984 22.3535 0.47446 22.6926 0.724509 22.9426C0.974557 23.1927 1.3137 23.3332 1.66732 23.3332H5.85398C6.16103 24.463 6.83132 25.4604 7.76145 26.1715C8.69157 26.8826 9.82985 27.2678 11.0007 27.2678C12.1715 27.2678 13.3097 26.8826 14.2399 26.1715C15.17 25.4604 15.8403 24.463 16.1473 23.3332H20.334C20.6876 23.3332 21.0267 23.1927 21.2768 22.9426C21.5268 22.6926 21.6673 22.3535 21.6673 21.9998V19.3332C21.665 18.5079 21.4075 17.7036 20.9301 17.0304C20.4527 16.3573 19.7787 15.8483 19.0007 15.5732ZM5.66732 11.3332C5.66732 9.91868 6.22922 8.56213 7.22941 7.56193C8.22961 6.56174 9.58616 5.99984 11.0007 5.99984C12.4151 5.99984 13.7717 6.56174 14.7719 7.56193C15.7721 8.56213 16.334 9.91868 16.334 11.3332V15.3332H5.66732V11.3332ZM11.0007 24.6665C10.5353 24.6637 10.0787 24.5391 9.67642 24.3052C9.2741 24.0713 8.94 23.7362 8.70732 23.3332H13.294C13.0613 23.7362 12.7272 24.0713 12.3249 24.3052C11.9226 24.5391 11.466 24.6637 11.0007 24.6665ZM19.0007 20.6665H3.00065V19.3332C3.00065 18.9795 3.14113 18.6404 3.39118 18.3904C3.64122 18.1403 3.98036 17.9998 4.33398 17.9998H17.6673C18.0209 17.9998 18.3601 18.1403 18.6101 18.3904C18.8602 18.6404 19.0007 18.9795 19.0007 19.3332V20.6665Z" fill="#007AFF"/>
</svg>
