<svg width="28" height="28" viewBox="0 0 28 28" fill="none" xmlns="http://www.w3.org/2000/svg">
<path d="M26.0003 19.3337H7.33366C6.98004 19.3337 6.6409 19.1932 6.39085 18.9431C6.1408 18.6931 6.00033 18.3539 6.00033 18.0003C6.00033 17.6467 6.1408 17.3076 6.39085 17.0575C6.6409 16.8075 6.98004 16.667 7.33366 16.667H21.2537C22.1452 16.667 23.0112 16.3692 23.7141 15.8209C24.4171 15.2725 24.9167 14.5051 25.1337 13.6403L27.3337 4.98699C27.3836 4.7902 27.3879 4.58461 27.3463 4.38589C27.3048 4.18717 27.2183 4.00057 27.0937 3.84033C26.964 3.67597 26.7974 3.54446 26.6075 3.45643C26.4176 3.36841 26.2095 3.32635 26.0003 3.33366H7.01366C6.73857 2.55559 6.22957 1.88166 5.55641 1.40424C4.88326 0.92683 4.07892 0.669312 3.25366 0.666992H2.00033C1.6467 0.666992 1.30756 0.807468 1.05752 1.05752C0.807468 1.30756 0.666992 1.6467 0.666992 2.00033C0.666992 2.35395 0.807468 2.69309 1.05752 2.94313C1.30756 3.19318 1.6467 3.33366 2.00033 3.33366H3.25366C3.55824 3.32478 3.85667 3.4205 4.09927 3.60488C4.34186 3.78925 4.51399 4.05116 4.58699 4.34699L4.66699 4.98699L6.97366 14.0003C5.91279 14.0481 4.91434 14.5153 4.19795 15.2992C3.48156 16.0831 3.10592 17.1195 3.15366 18.1803C3.2014 19.2412 3.66861 20.2396 4.45251 20.956C5.23641 21.6724 6.27279 22.0481 7.33366 22.0003H7.57366C7.35437 22.6045 7.28391 23.2526 7.36823 23.8898C7.45256 24.527 7.68919 25.1345 8.05808 25.6608C8.42698 26.1871 8.91728 26.6168 9.48746 26.9135C10.0576 27.2101 10.6909 27.365 11.3337 27.365C11.9764 27.365 12.6097 27.2101 13.1799 26.9135C13.75 26.6168 14.2403 26.1871 14.6092 25.6608C14.9781 25.1345 15.2148 24.527 15.2991 23.8898C15.3834 23.2526 15.3129 22.6045 15.0937 22.0003H18.2403C18.021 22.6045 17.9506 23.2526 18.0349 23.8898C18.1192 24.527 18.3559 25.1345 18.7248 25.6608C19.0936 26.1871 19.5839 26.6168 20.1541 26.9135C20.7243 27.2101 21.3576 27.365 22.0003 27.365C22.6431 27.365 23.2763 27.2101 23.8465 26.9135C24.4167 26.6168 24.907 26.1871 25.2759 25.6608C25.6448 25.1345 25.8814 24.527 25.9658 23.8898C26.0501 23.2526 25.9796 22.6045 25.7603 22.0003H26.0003C26.3539 22.0003 26.6931 21.8599 26.9431 21.6098C27.1932 21.3598 27.3337 21.0206 27.3337 20.667C27.3337 20.3134 27.1932 19.9742 26.9431 19.7242C26.6931 19.4741 26.3539 19.3337 26.0003 19.3337ZM24.2937 6.00033L22.547 12.987C22.474 13.2828 22.3019 13.5447 22.0593 13.7291C21.8167 13.9135 21.5182 14.0092 21.2137 14.0003H9.70699L7.70699 6.00033H24.2937ZM11.3337 24.667C11.07 24.667 10.8122 24.5888 10.5929 24.4423C10.3736 24.2958 10.2027 24.0875 10.1018 23.8439C10.0009 23.6003 9.9745 23.3322 10.0259 23.0735C10.0774 22.8149 10.2044 22.5773 10.3909 22.3909C10.5773 22.2044 10.8149 22.0774 11.0735 22.0259C11.3322 21.9745 11.6003 22.0009 11.8439 22.1018C12.0875 22.2027 12.2958 22.3736 12.4423 22.5929C12.5888 22.8122 12.667 23.07 12.667 23.3337C12.667 23.6873 12.5265 24.0264 12.2765 24.2765C12.0264 24.5265 11.6873 24.667 11.3337 24.667ZM22.0003 24.667C21.7366 24.667 21.4788 24.5888 21.2596 24.4423C21.0403 24.2958 20.8694 24.0875 20.7685 23.8439C20.6676 23.6003 20.6412 23.3322 20.6926 23.0735C20.7441 22.8149 20.871 22.5773 21.0575 22.3909C21.244 22.2044 21.4816 22.0774 21.7402 22.0259C21.9988 21.9745 22.2669 22.0009 22.5106 22.1018C22.7542 22.2027 22.9624 22.3736 23.109 22.5929C23.2555 22.8122 23.3337 23.07 23.3337 23.3337C23.3337 23.6873 23.1932 24.0264 22.9431 24.2765C22.6931 24.5265 22.3539 24.667 22.0003 24.667Z" fill="white"/>
</svg>
