<svg width="12" height="14" viewBox="0 0 12 14" fill="none" xmlns="http://www.w3.org/2000/svg">
<path d="M8.66667 12.333H3.33333C2.8029 12.333 2.29419 12.1223 1.91912 11.7472C1.54405 11.3721 1.33333 10.8634 1.33333 10.333V3.66634C1.33333 3.48953 1.2631 3.31996 1.13807 3.19494C1.01305 3.06991 0.843478 2.99967 0.666667 2.99967C0.489856 2.99967 0.320286 3.06991 0.195262 3.19494C0.0702379 3.31996 0 3.48953 0 3.66634V10.333C0 11.2171 0.351189 12.0649 0.976311 12.69C1.60143 13.3152 2.44928 13.6663 3.33333 13.6663H8.66667C8.84348 13.6663 9.01305 13.5961 9.13807 13.4711C9.2631 13.3461 9.33333 13.1765 9.33333 12.9997C9.33333 12.8229 9.2631 12.6533 9.13807 12.5283C9.01305 12.4032 8.84348 12.333 8.66667 12.333ZM12 4.95967C11.9931 4.89843 11.9796 4.8381 11.96 4.77967V4.71967C11.9279 4.65113 11.8852 4.58812 11.8333 4.53301L7.83333 0.533008C7.77822 0.481152 7.71521 0.438395 7.64667 0.406341H7.58667L7.37333 0.333008H4.66667C4.13623 0.333008 3.62753 0.543722 3.25245 0.918794C2.87738 1.29387 2.66667 1.80257 2.66667 2.33301V8.99967C2.66667 9.53011 2.87738 10.0388 3.25245 10.4139C3.62753 10.789 4.13623 10.9997 4.66667 10.9997H10C10.5304 10.9997 11.0391 10.789 11.4142 10.4139C11.7893 10.0388 12 9.53011 12 8.99967V4.99967C12 4.99967 12 4.99967 12 4.95967ZM8 2.60634L9.72667 4.33301H8.66667C8.48986 4.33301 8.32029 4.26277 8.19526 4.13775C8.07024 4.01272 8 3.84315 8 3.66634V2.60634ZM10.6667 8.99967C10.6667 9.17649 10.5964 9.34606 10.4714 9.47108C10.3464 9.5961 10.1768 9.66634 10 9.66634H4.66667C4.48986 9.66634 4.32029 9.5961 4.19526 9.47108C4.07024 9.34606 4 9.17649 4 8.99967V2.33301C4 2.1562 4.07024 1.98663 4.19526 1.8616C4.32029 1.73658 4.48986 1.66634 4.66667 1.66634H6.66667V3.66634C6.66667 4.19677 6.87738 4.70548 7.25245 5.08055C7.62753 5.45563 8.13623 5.66634 8.66667 5.66634H10.6667V8.99967Z" fill="#7F8895"/>
</svg>
