<svg width="22" height="20" viewBox="0 0 22 20" fill="none" xmlns="http://www.w3.org/2000/svg">
<path d="M19.5 11.9999C19.2348 11.9999 18.9804 12.1053 18.7929 12.2928C18.6054 12.4803 18.5 12.7347 18.5 12.9999V16.9999C18.5 17.2651 18.3946 17.5195 18.2071 17.707C18.0196 17.8945 17.7652 17.9999 17.5 17.9999H3.5C3.23478 17.9999 2.98043 17.8945 2.79289 17.707C2.60536 17.5195 2.5 17.2651 2.5 16.9999V7.4099L8.38 13.2999C8.9425 13.8617 9.705 14.1773 10.5 14.1773C11.295 14.1773 12.0575 13.8617 12.62 13.2999L14.26 11.6599C14.4483 11.4716 14.5541 11.2162 14.5541 10.9499C14.5541 10.6836 14.4483 10.4282 14.26 10.2399C14.0717 10.0516 13.8163 9.9458 13.55 9.9458C13.2837 9.9458 13.0283 10.0516 12.84 10.2399L11.2 11.8799C11.0131 12.0631 10.7618 12.1658 10.5 12.1658C10.2382 12.1658 9.98693 12.0631 9.8 11.8799L3.91 5.9999H10.5C10.7652 5.9999 11.0196 5.89454 11.2071 5.707C11.3946 5.51947 11.5 5.26511 11.5 4.9999C11.5 4.73468 11.3946 4.48033 11.2071 4.29279C11.0196 4.10525 10.7652 3.9999 10.5 3.9999H3.5C2.70435 3.9999 1.94129 4.31597 1.37868 4.87858C0.816071 5.44119 0.5 6.20425 0.5 6.9999V16.9999C0.5 17.7955 0.816071 18.5586 1.37868 19.1212C1.94129 19.6838 2.70435 19.9999 3.5 19.9999H17.5C18.2956 19.9999 19.0587 19.6838 19.6213 19.1212C20.1839 18.5586 20.5 17.7955 20.5 16.9999V12.9999C20.5 12.7347 20.3946 12.4803 20.2071 12.2928C20.0196 12.1053 19.7652 11.9999 19.5 11.9999ZM21.21 3.2899L18.21 0.289896C18.1149 0.198856 18.0028 0.127491 17.88 0.0798963C17.6365 -0.0201217 17.3635 -0.0201217 17.12 0.0798963C16.9972 0.127491 16.8851 0.198856 16.79 0.289896L13.79 3.2899C13.6017 3.4782 13.4959 3.73359 13.4959 3.9999C13.4959 4.2662 13.6017 4.52159 13.79 4.7099C13.9783 4.8982 14.2337 5.00399 14.5 5.00399C14.7663 5.00399 15.0217 4.8982 15.21 4.7099L16.5 3.4099V8.9999C16.5 9.26511 16.6054 9.51947 16.7929 9.707C16.9804 9.89454 17.2348 9.9999 17.5 9.9999C17.7652 9.9999 18.0196 9.89454 18.2071 9.707C18.3946 9.51947 18.5 9.26511 18.5 8.9999V3.4099L19.79 4.7099C19.883 4.80363 19.9936 4.87802 20.1154 4.92879C20.2373 4.97956 20.368 5.00569 20.5 5.00569C20.632 5.00569 20.7627 4.97956 20.8846 4.92879C21.0064 4.87802 21.117 4.80363 21.21 4.7099C21.3037 4.61693 21.3781 4.50633 21.4289 4.38447C21.4797 4.26261 21.5058 4.13191 21.5058 3.9999C21.5058 3.86788 21.4797 3.73718 21.4289 3.61532C21.3781 3.49346 21.3037 3.38286 21.21 3.2899Z" fill="#546071"/>
</svg>
