<svg width="21" height="20" viewBox="0 0 21 20" fill="none" xmlns="http://www.w3.org/2000/svg">
<path d="M18.9705 0.000139831H2.03055C1.84013 -0.00250479 1.65105 0.0323873 1.47411 0.102824C1.29718 0.17326 1.13585 0.27786 0.999344 0.410652C0.862839 0.543443 0.753828 0.701824 0.678539 0.876749C0.603249 1.05167 0.563155 1.23972 0.560547 1.43014V18.5701C0.563155 18.7606 0.603249 18.9486 0.678539 19.1235C0.753828 19.2985 0.862839 19.4568 0.999344 19.5896C1.13585 19.7224 1.29718 19.827 1.47411 19.8975C1.65105 19.9679 1.84013 20.0028 2.03055 20.0001H18.9705C19.161 20.0028 19.35 19.9679 19.527 19.8975C19.7039 19.827 19.8652 19.7224 20.0017 19.5896C20.1383 19.4568 20.2473 19.2985 20.3226 19.1235C20.3978 18.9486 20.4379 18.7606 20.4405 18.5701V1.43014C20.4379 1.23972 20.3978 1.05167 20.3226 0.876749C20.2473 0.701824 20.1383 0.543443 20.0017 0.410652C19.8652 0.27786 19.7039 0.17326 19.527 0.102824C19.35 0.0323873 19.161 -0.00250479 18.9705 0.000139831ZM6.59055 16.7401H3.59055V7.74014H6.59055V16.7401ZM5.09055 6.48014C4.67681 6.48014 4.28002 6.31578 3.98746 6.02323C3.6949 5.73067 3.53055 5.33388 3.53055 4.92014C3.53055 4.5064 3.6949 4.10961 3.98746 3.81705C4.28002 3.5245 4.67681 3.36014 5.09055 3.36014C5.31024 3.33522 5.53272 3.35699 5.74342 3.42402C5.95412 3.49105 6.14829 3.60183 6.3132 3.7491C6.47812 3.89637 6.61007 4.07682 6.70042 4.27862C6.79076 4.48043 6.83746 4.69904 6.83746 4.92014C6.83746 5.14124 6.79076 5.35985 6.70042 5.56166C6.61007 5.76346 6.47812 5.94391 6.3132 6.09118C6.14829 6.23845 5.95412 6.34923 5.74342 6.41626C5.53272 6.48329 5.31024 6.50505 5.09055 6.48014ZM17.4105 16.7401H14.4105V11.9101C14.4105 10.7001 13.9805 9.91014 12.8905 9.91014C12.5532 9.91261 12.2247 10.0184 11.9494 10.2133C11.674 10.4082 11.465 10.6828 11.3505 11.0001C11.2723 11.2352 11.2384 11.4827 11.2505 11.7301V16.7301H8.25055C8.25055 16.7301 8.25055 8.55014 8.25055 7.73014H11.2505V9.00014C11.5231 8.52725 11.9195 8.13766 12.397 7.87334C12.8745 7.60902 13.4151 7.47999 13.9605 7.50014C15.9605 7.50014 17.4105 8.79014 17.4105 11.5601V16.7401Z" fill="white"/>
</svg>
