<svg width="16" height="12" viewBox="0 0 16 12" fill="none" xmlns="http://www.w3.org/2000/svg">
<path d="M0.8 2H15.2C15.4122 2 15.6157 1.89464 15.7657 1.70711C15.9157 1.51957 16 1.26522 16 1C16 0.734784 15.9157 0.48043 15.7657 0.292893C15.6157 0.105357 15.4122 0 15.2 0H0.8C0.587827 0 0.384344 0.105357 0.234315 0.292893C0.0842854 0.48043 0 0.734784 0 1C0 1.26522 0.0842854 1.51957 0.234315 1.70711C0.384344 1.89464 0.587827 2 0.8 2ZM15.2 10H0.8C0.587827 10 0.384344 10.1054 0.234315 10.2929C0.0842854 10.4804 0 10.7348 0 11C0 11.2652 0.0842854 11.5196 0.234315 11.7071C0.384344 11.8946 0.587827 12 0.8 12H15.2C15.4122 12 15.6157 11.8946 15.7657 11.7071C15.9157 11.5196 16 11.2652 16 11C16 10.7348 15.9157 10.4804 15.7657 10.2929C15.6157 10.1054 15.4122 10 15.2 10ZM15.2 5H0.8C0.587827 5 0.384344 5.10536 0.234315 5.29289C0.0842854 5.48043 0 5.73478 0 6C0 6.26522 0.0842854 6.51957 0.234315 6.70711C0.384344 6.89464 0.587827 7 0.8 7H15.2C15.4122 7 15.6157 6.89464 15.7657 6.70711C15.9157 6.51957 16 6.26522 16 6C16 5.73478 15.9157 5.48043 15.7657 5.29289C15.6157 5.10536 15.4122 5 15.2 5Z" fill="#29384E"/>
</svg>
