<svg width="22" height="28" viewBox="0 0 22 28" fill="none" xmlns="http://www.w3.org/2000/svg">
<path d="M17.6663 10.0003V7.33366C17.6663 5.56555 16.964 3.86986 15.7137 2.61961C14.4635 1.36937 12.7678 0.666992 10.9997 0.666992C9.23156 0.666992 7.53587 1.36937 6.28563 2.61961C5.03539 3.86986 4.33301 5.56555 4.33301 7.33366V10.0003C3.27214 10.0003 2.25473 10.4218 1.50458 11.1719C0.754435 11.922 0.333008 12.9395 0.333008 14.0003V23.3337C0.333008 24.3945 0.754435 25.4119 1.50458 26.1621C2.25473 26.9122 3.27214 27.3337 4.33301 27.3337H17.6663C18.7272 27.3337 19.7446 26.9122 20.4948 26.1621C21.2449 25.4119 21.6663 24.3945 21.6663 23.3337V14.0003C21.6663 12.9395 21.2449 11.922 20.4948 11.1719C19.7446 10.4218 18.7272 10.0003 17.6663 10.0003ZM6.99967 7.33366C6.99967 6.27279 7.4211 5.25538 8.17125 4.50523C8.92139 3.75509 9.93881 3.33366 10.9997 3.33366C12.0605 3.33366 13.078 3.75509 13.8281 4.50523C14.5782 5.25538 14.9997 6.27279 14.9997 7.33366V10.0003H6.99967V7.33366ZM18.9997 23.3337C18.9997 23.6873 18.8592 24.0264 18.6091 24.2765C18.3591 24.5265 18.02 24.667 17.6663 24.667H4.33301C3.97939 24.667 3.64025 24.5265 3.3902 24.2765C3.14015 24.0264 2.99967 23.6873 2.99967 23.3337V14.0003C2.99967 13.6467 3.14015 13.3076 3.3902 13.0575C3.64025 12.8075 3.97939 12.667 4.33301 12.667H17.6663C18.02 12.667 18.3591 12.8075 18.6091 13.0575C18.8592 13.3076 18.9997 13.6467 18.9997 14.0003V23.3337Z" fill="#E0EFFF"/>
</svg>
