<svg width="22" height="22" viewBox="0 0 22 22" fill="none" xmlns="http://www.w3.org/2000/svg">
<path d="M20.7473 19.4825L15.4102 14.17C16.7056 12.5537 17.3329 10.5021 17.1631 8.43721C16.9934 6.37227 16.0396 4.45088 14.4978 3.06813C12.9559 1.68538 10.9433 0.946361 8.87376 1.00303C6.80419 1.05971 4.83498 1.90777 3.37103 3.37283C1.90708 4.83789 1.05966 6.8086 1.00303 8.87974C0.946401 10.9509 1.68486 12.965 3.06656 14.508C4.44826 16.051 6.36819 17.0056 8.43156 17.1754C10.4949 17.3453 12.5449 16.7175 14.16 15.4212L19.47 20.7337C19.5536 20.8181 19.6531 20.8851 19.7627 20.9308C19.8723 20.9765 19.9899 21 20.1086 21C20.2274 21 20.3449 20.9765 20.4546 20.9308C20.5642 20.8851 20.6636 20.8181 20.7473 20.7337C20.9094 20.5659 21 20.3416 21 20.1081C21 19.8747 20.9094 19.6504 20.7473 19.4825ZM9.11399 15.4212C7.8687 15.4212 6.65139 15.0516 5.61597 14.3593C4.58056 13.6669 3.77355 12.6828 3.297 11.5315C2.82045 10.3801 2.69577 9.11316 2.93871 7.89088C3.18165 6.6686 3.78131 5.54586 4.66186 4.66464C5.54241 3.78343 6.66429 3.18331 7.88565 2.94018C9.107 2.69706 10.373 2.82184 11.5235 3.29875C12.674 3.77566 13.6573 4.58328 14.3491 5.61948C15.041 6.65568 15.4102 7.87392 15.4102 9.12015C15.4102 10.7913 14.7469 12.394 13.5661 13.5757C12.3853 14.7573 10.7839 15.4212 9.11399 15.4212Z" fill="#7F8895"/>
<path fill-rule="evenodd" clip-rule="evenodd" d="M20.8909 19.3434C21.0891 19.5485 21.1998 19.8227 21.1998 20.1079C21.1998 20.3932 21.0891 20.6673 20.8909 20.8725L20.8891 20.8743C20.7869 20.9775 20.6653 21.0593 20.5313 21.1152C20.3973 21.171 20.2536 21.1998 20.1084 21.1998C19.9633 21.1998 19.8196 21.171 19.6856 21.1152C19.5517 21.0593 19.4301 20.9776 19.328 20.8745C19.3279 20.8745 19.328 20.8746 19.328 20.8745L14.1437 15.6878C12.5114 16.941 10.4697 17.5437 8.41496 17.3745C6.30056 17.2005 4.3332 16.2223 2.91737 14.6412C1.50155 13.0601 0.744884 10.9963 0.802912 8.87408C0.860939 6.75186 1.72925 4.73251 3.22936 3.23127C4.72947 1.73002 6.74735 0.860989 8.86809 0.802914C10.9888 0.744839 13.0512 1.50213 14.6311 2.91904C16.211 4.33595 17.1884 6.30476 17.3623 8.42063C17.5313 10.4767 16.9291 12.5198 15.677 14.1534L20.8909 19.3434ZM15.41 14.1698C16.7054 12.5535 17.3327 10.502 17.1629 8.43701C16.9932 6.37207 16.0394 4.45069 14.4976 3.06794C12.9557 1.68518 10.9431 0.946165 8.87356 1.00284C6.804 1.05951 4.83478 1.90757 3.37083 3.37263C1.90688 4.8377 1.05947 6.80841 1.00284 8.87955C0.946206 10.9507 1.68466 12.9648 3.06637 14.5078C4.44807 16.0508 6.368 17.0054 8.43137 17.1752C10.4947 17.3451 12.5447 16.7173 14.1598 15.421L19.4698 20.7335C19.5534 20.8179 19.6529 20.8849 19.7625 20.9306C19.8721 20.9763 19.9897 20.9998 20.1084 20.9998C20.2272 20.9998 20.3448 20.9763 20.4544 20.9306C20.564 20.8849 20.6634 20.8179 20.7471 20.7335C20.9092 20.5657 20.9998 20.3414 20.9998 20.1079C20.9998 19.8745 20.9092 19.6502 20.7471 19.4823L15.41 14.1698ZM5.72695 14.1928C6.72947 14.8632 7.9081 15.221 9.11379 15.221C10.7306 15.221 12.2812 14.5782 13.4244 13.4341C14.5677 12.2899 15.21 10.7381 15.21 9.11996C15.21 7.91325 14.8525 6.73366 14.1826 5.73034C13.5127 4.72703 12.5606 3.94506 11.4467 3.48331C10.3328 3.02155 9.10703 2.90074 7.9245 3.13614C6.74197 3.37154 5.65573 3.95258 4.80314 4.80582C3.95055 5.65905 3.36992 6.74616 3.13468 7.92967C2.89944 9.11319 3.02017 10.3399 3.4816 11.4548C3.94303 12.5696 4.72443 13.5225 5.72695 14.1928ZM5.61578 14.3591C6.65119 15.0514 7.86851 15.421 9.11379 15.421C10.7837 15.421 12.3851 14.7571 13.5659 13.5755C14.7467 12.3938 15.41 10.7911 15.41 9.11996C15.41 7.87373 15.0408 6.65549 14.3489 5.61929C13.6571 4.58309 12.6738 3.77546 11.5233 3.29855C10.3728 2.82164 9.10681 2.69686 7.88545 2.93999C6.6641 3.18312 5.54221 3.78323 4.66167 4.66445C3.78112 5.54566 3.18146 6.6684 2.93852 7.89068C2.69557 9.11297 2.82026 10.3799 3.29681 11.5313C3.77336 12.6826 4.58036 13.6667 5.61578 14.3591Z" fill="#7F8895"/>
</svg>
