<svg width="12" height="12" viewBox="0 0 12 12" fill="none" xmlns="http://www.w3.org/2000/svg">
<path d="M6.94028 6.00012L11.1403 1.80679C11.2658 1.68125 11.3363 1.51099 11.3363 1.33346C11.3363 1.15592 11.2658 0.985659 11.1403 0.860124C11.0147 0.734588 10.8445 0.664062 10.667 0.664062C10.4894 0.664062 10.3192 0.734588 10.1936 0.860124L6.00029 5.06012L1.80695 0.860124C1.68142 0.734588 1.51115 0.664063 1.33362 0.664063C1.15608 0.664063 0.985821 0.734588 0.860285 0.860124C0.734749 0.985659 0.664224 1.15592 0.664224 1.33346C0.664224 1.51099 0.734749 1.68125 0.860285 1.80679L5.06029 6.00012L0.860285 10.1935C0.797799 10.2554 0.748203 10.3292 0.714357 10.4104C0.680512 10.4916 0.663086 10.5788 0.663086 10.6668C0.663086 10.7548 0.680512 10.8419 0.714357 10.9232C0.748203 11.0044 0.797799 11.0781 0.860285 11.1401C0.92226 11.2026 0.995994 11.2522 1.07723 11.2861C1.15847 11.3199 1.24561 11.3373 1.33362 11.3373C1.42163 11.3373 1.50876 11.3199 1.59 11.2861C1.67124 11.2522 1.74498 11.2026 1.80695 11.1401L6.00029 6.94012L10.1936 11.1401C10.2556 11.2026 10.3293 11.2522 10.4106 11.2861C10.4918 11.3199 10.5789 11.3373 10.667 11.3373C10.755 11.3373 10.8421 11.3199 10.9233 11.2861C11.0046 11.2522 11.0783 11.2026 11.1403 11.1401C11.2028 11.0781 11.2524 11.0044 11.2862 10.9232C11.3201 10.8419 11.3375 10.7548 11.3375 10.6668C11.3375 10.5788 11.3201 10.4916 11.2862 10.4104C11.2524 10.3292 11.2028 10.2554 11.1403 10.1935L6.94028 6.00012Z" fill="#007AFF"/>
</svg>
