<svg width="14" height="14" viewBox="0 0 14 14" fill="none" xmlns="http://www.w3.org/2000/svg">
<path d="M13.9994 3.82635C13.9999 3.73861 13.9831 3.65164 13.9499 3.57041C13.9167 3.48919 13.8678 3.41531 13.806 3.35302L10.9794 0.526352C10.9171 0.464565 10.8432 0.415681 10.762 0.382505C10.6807 0.349328 10.5938 0.332512 10.506 0.333019C10.4183 0.332512 10.3313 0.349328 10.2501 0.382505C10.1689 0.415681 10.095 0.464565 10.0327 0.526352L8.14603 2.41302L0.85936 9.69969C0.797572 9.76198 0.748689 9.83586 0.715513 9.91708C0.682336 9.99831 0.66552 10.0853 0.666027 10.173V12.9997C0.666027 13.1765 0.736265 13.3461 0.861289 13.4711C0.986313 13.5961 1.15588 13.6664 1.33269 13.6664H4.15936C4.25265 13.6714 4.34596 13.6568 4.43324 13.6235C4.52052 13.5902 4.59983 13.5389 4.66603 13.473L11.9127 6.18635L13.806 4.33302C13.8669 4.26841 13.9165 4.19404 13.9527 4.11302C13.9591 4.05988 13.9591 4.00616 13.9527 3.95302C13.9558 3.92199 13.9558 3.89072 13.9527 3.85969L13.9994 3.82635ZM3.88603 12.333H1.99936V10.4464L8.61936 3.82635L10.506 5.71302L3.88603 12.333ZM11.446 4.77302L9.55936 2.88635L10.506 1.94635L12.386 3.82635L11.446 4.77302Z" fill="#007AFF"/>
</svg>
