<svg width="14" height="18" viewBox="0 0 14 18" fill="none" xmlns="http://www.w3.org/2000/svg">
<path d="M12.833 4.00033H10.333V1.50033C10.333 1.27931 10.2452 1.06735 10.0889 0.91107C9.93265 0.75479 9.72069 0.666992 9.49967 0.666992C9.27866 0.666992 9.0667 0.75479 8.91042 0.91107C8.75414 1.06735 8.66634 1.27931 8.66634 1.50033V4.00033H5.33301V1.50033C5.33301 1.27931 5.24521 1.06735 5.08893 0.91107C4.93265 0.75479 4.72069 0.666992 4.49967 0.666992C4.27866 0.666992 4.0667 0.75479 3.91042 0.91107C3.75414 1.06735 3.66634 1.27931 3.66634 1.50033V4.00033H1.16634C0.945327 4.00033 0.733366 4.08812 0.577086 4.2444C0.420805 4.40068 0.333008 4.61265 0.333008 4.83366C0.333008 5.05467 0.420805 5.26663 0.577086 5.42291C0.733366 5.5792 0.945327 5.66699 1.16634 5.66699H1.99967V9.83366C1.99904 9.94333 2.02006 10.052 2.06153 10.1536C2.103 10.2551 2.16411 10.3475 2.24134 10.4253L4.49967 12.6753V16.5003C4.49967 16.7213 4.58747 16.9333 4.74375 17.0896C4.90003 17.2459 5.11199 17.3337 5.33301 17.3337C5.55402 17.3337 5.76598 17.2459 5.92226 17.0896C6.07854 16.9333 6.16634 16.7213 6.16634 16.5003V13.167H7.83301V16.5003C7.83301 16.7213 7.9208 16.9333 8.07709 17.0896C8.23337 17.2459 8.44533 17.3337 8.66634 17.3337C8.88735 17.3337 9.09932 17.2459 9.2556 17.0896C9.41188 16.9333 9.49967 16.7213 9.49967 16.5003V12.6753L11.758 10.4253C11.8352 10.3475 11.8963 10.2551 11.9378 10.1536C11.9793 10.052 12.0003 9.94333 11.9997 9.83366V5.66699H12.833C13.054 5.66699 13.266 5.5792 13.4223 5.42291C13.5785 5.26663 13.6663 5.05467 13.6663 4.83366C13.6663 4.61265 13.5785 4.40068 13.4223 4.2444C13.266 4.08812 13.054 4.00033 12.833 4.00033ZM10.333 9.49199L8.32467 11.5003H5.67467L3.66634 9.49199V5.66699H10.333V9.49199ZM6.16634 9.83366H7.83301C8.05402 9.83366 8.26598 9.74586 8.42226 9.58958C8.57854 9.4333 8.66634 9.22134 8.66634 9.00033C8.66634 8.77931 8.57854 8.56735 8.42226 8.41107C8.26598 8.25479 8.05402 8.16699 7.83301 8.16699H6.16634C5.94533 8.16699 5.73337 8.25479 5.57709 8.41107C5.4208 8.56735 5.33301 8.77931 5.33301 9.00033C5.33301 9.22134 5.4208 9.4333 5.57709 9.58958C5.73337 9.74586 5.94533 9.83366 6.16634 9.83366Z" fill="#29384E"/>
</svg>
