<svg width="12" height="12" viewBox="0 0 12 12" fill="none" xmlns="http://www.w3.org/2000/svg">
<path d="M10.667 5.33317H6.66699V1.33317C6.66699 1.15636 6.59675 0.98679 6.47173 0.861766C6.34671 0.736742 6.17714 0.666504 6.00033 0.666504C5.82351 0.666504 5.65394 0.736742 5.52892 0.861766C5.4039 0.98679 5.33366 1.15636 5.33366 1.33317V5.33317H1.33366C1.15685 5.33317 0.987279 5.40341 0.862254 5.52843C0.73723 5.65346 0.666992 5.82303 0.666992 5.99984C0.666992 6.17665 0.73723 6.34622 0.862254 6.47124C0.987279 6.59627 1.15685 6.6665 1.33366 6.6665H5.33366V10.6665C5.33366 10.8433 5.4039 11.0129 5.52892 11.1379C5.65394 11.2629 5.82351 11.3332 6.00033 11.3332C6.17714 11.3332 6.34671 11.2629 6.47173 11.1379C6.59675 11.0129 6.66699 10.8433 6.66699 10.6665V6.6665H10.667C10.8438 6.6665 11.0134 6.59627 11.1384 6.47124C11.2634 6.34622 11.3337 6.17665 11.3337 5.99984C11.3337 5.82303 11.2634 5.65346 11.1384 5.52843C11.0134 5.40341 10.8438 5.33317 10.667 5.33317Z" fill="white"/>
</svg>
