<svg width="14" height="14" viewBox="0 0 14 14" fill="none" xmlns="http://www.w3.org/2000/svg">
<path d="M12.273 9.33967H9.25301C9.0762 9.33967 8.90663 9.40991 8.7816 9.53494C8.65658 9.65996 8.58634 9.82953 8.58634 10.0063C8.58634 10.1832 8.65658 10.3527 8.7816 10.4777C8.90663 10.6028 9.0762 10.673 9.25301 10.673H10.853C10.1176 11.4415 9.16928 11.9726 8.12978 12.1979C7.09029 12.4233 6.00715 12.3327 5.01953 11.9378C4.0319 11.5429 3.18492 10.8617 2.5874 9.98179C1.98988 9.10184 1.66913 8.06332 1.66634 6.99967C1.66634 6.82286 1.5961 6.65329 1.47108 6.52827C1.34605 6.40325 1.17649 6.33301 0.999674 6.33301C0.822863 6.33301 0.653294 6.40325 0.52827 6.52827C0.403246 6.65329 0.333008 6.82286 0.333008 6.99967C0.336532 8.30154 0.721155 9.57389 1.43941 10.6597C2.15767 11.7455 3.17812 12.5972 4.37484 13.1098C5.57155 13.6224 6.89216 13.7734 8.17369 13.5441C9.45521 13.3148 10.6416 12.7154 11.5863 11.8197V12.9997C11.5863 13.1765 11.6566 13.3461 11.7816 13.4711C11.9066 13.5961 12.0762 13.6663 12.253 13.6663C12.4298 13.6663 12.5994 13.5961 12.7244 13.4711C12.8494 13.3461 12.9197 13.1765 12.9197 12.9997V9.99967C12.918 9.82743 12.8498 9.66251 12.7292 9.53947C12.6087 9.41644 12.4452 9.34483 12.273 9.33967ZM6.99967 0.333008C5.2906 0.337883 3.64867 0.99895 2.41301 2.17967V0.999674C2.41301 0.822863 2.34277 0.653294 2.21775 0.52827C2.09272 0.403246 1.92315 0.333008 1.74634 0.333008C1.56953 0.333008 1.39996 0.403246 1.27494 0.52827C1.14991 0.653294 1.07967 0.822863 1.07967 0.999674V3.99967C1.07967 4.17649 1.14991 4.34605 1.27494 4.47108C1.39996 4.5961 1.56953 4.66634 1.74634 4.66634H4.74634C4.92315 4.66634 5.09272 4.5961 5.21775 4.47108C5.34277 4.34605 5.41301 4.17649 5.41301 3.99967C5.41301 3.82286 5.34277 3.65329 5.21775 3.52827C5.09272 3.40325 4.92315 3.33301 4.74634 3.33301H3.14634C3.88132 2.56492 4.82907 2.03401 5.86794 1.80841C6.90681 1.58282 7.9894 1.67284 8.97675 2.06692C9.96409 2.46099 10.8111 3.14115 11.4092 4.02008C12.0072 4.899 12.3289 5.9366 12.333 6.99967C12.333 7.17649 12.4032 7.34606 12.5283 7.47108C12.6533 7.5961 12.8229 7.66634 12.9997 7.66634C13.1765 7.66634 13.3461 7.5961 13.4711 7.47108C13.5961 7.34606 13.6663 7.17649 13.6663 6.99967C13.6663 6.1242 13.4939 5.25729 13.1589 4.44845C12.8238 3.63961 12.3328 2.90469 11.7137 2.28563C11.0947 1.66657 10.3597 1.17551 9.5509 0.840478C8.74206 0.505446 7.87515 0.333008 6.99967 0.333008Z" fill="#29384E"/>
</svg>
