<svg width="13" height="14" viewBox="0 0 13 14" fill="none" xmlns="http://www.w3.org/2000/svg">
<path d="M3.33333 4.33301C3.15652 4.33301 2.98695 4.40325 2.86193 4.52827C2.7369 4.65329 2.66667 4.82286 2.66667 4.99967C2.66667 5.17649 2.7369 5.34605 2.86193 5.47108C2.98695 5.5961 3.15652 5.66634 3.33333 5.66634H4C4.17681 5.66634 4.34638 5.5961 4.4714 5.47108C4.59643 5.34605 4.66667 5.17649 4.66667 4.99967C4.66667 4.82286 4.59643 4.65329 4.4714 4.52827C4.34638 4.40325 4.17681 4.33301 4 4.33301H3.33333ZM6.66667 12.333H2C1.82319 12.333 1.65362 12.2628 1.5286 12.1377C1.40357 12.0127 1.33333 11.8432 1.33333 11.6663V2.33301C1.33333 2.1562 1.40357 1.98663 1.5286 1.8616C1.65362 1.73658 1.82319 1.66634 2 1.66634H5.33333V3.66634C5.33333 4.19677 5.54405 4.70548 5.91912 5.08055C6.29419 5.45563 6.8029 5.66634 7.33333 5.66634H9.33333V6.99967C9.33333 7.17649 9.40357 7.34606 9.52859 7.47108C9.65362 7.5961 9.82319 7.66634 10 7.66634C10.1768 7.66634 10.3464 7.5961 10.4714 7.47108C10.5964 7.34606 10.6667 7.17649 10.6667 6.99967V4.99967C10.6667 4.99967 10.6667 4.99967 10.6667 4.95967C10.6597 4.89843 10.6463 4.8381 10.6267 4.77967V4.71967C10.5946 4.65113 10.5519 4.58812 10.5 4.53301L6.5 0.533008C6.44489 0.481152 6.38188 0.438395 6.31333 0.406341C6.29128 0.402481 6.26872 0.402481 6.24667 0.406341C6.18184 0.371677 6.11217 0.346956 6.04 0.333008H2C1.46957 0.333008 0.960859 0.543722 0.585786 0.918794C0.210714 1.29387 0 1.80257 0 2.33301V11.6663C0 12.1968 0.210714 12.7055 0.585786 13.0806C0.960859 13.4556 1.46957 13.6663 2 13.6663H6.66667C6.84348 13.6663 7.01305 13.5961 7.13807 13.4711C7.26309 13.3461 7.33333 13.1765 7.33333 12.9997C7.33333 12.8229 7.26309 12.6533 7.13807 12.5283C7.01305 12.4032 6.84348 12.333 6.66667 12.333ZM6.66667 2.60634L8.39333 4.33301H7.33333C7.15652 4.33301 6.98695 4.26277 6.86193 4.13775C6.7369 4.01272 6.66667 3.84315 6.66667 3.66634V2.60634ZM7.33333 6.99967H3.33333C3.15652 6.99967 2.98695 7.06991 2.86193 7.19494C2.7369 7.31996 2.66667 7.48953 2.66667 7.66634C2.66667 7.84315 2.7369 8.01272 2.86193 8.13775C2.98695 8.26277 3.15652 8.33301 3.33333 8.33301H7.33333C7.51014 8.33301 7.67971 8.26277 7.80474 8.13775C7.92976 8.01272 8 7.84315 8 7.66634C8 7.48953 7.92976 7.31996 7.80474 7.19494C7.67971 7.06991 7.51014 6.99967 7.33333 6.99967ZM11.8067 11.193C11.7447 11.1305 11.671 11.0809 11.5897 11.0471C11.5085 11.0132 11.4213 10.9958 11.3333 10.9958C11.2453 10.9958 11.1582 11.0132 11.0769 11.0471C10.9957 11.0809 10.922 11.1305 10.86 11.193L10.6667 11.393V9.66634C10.6667 9.48953 10.5964 9.31996 10.4714 9.19494C10.3464 9.06991 10.1768 8.99967 10 8.99967C9.82319 8.99967 9.65362 9.06991 9.52859 9.19494C9.40357 9.31996 9.33333 9.48953 9.33333 9.66634V11.393L9.14 11.193C9.01446 11.0675 8.8442 10.9969 8.66667 10.9969C8.48913 10.9969 8.31887 11.0675 8.19333 11.193C8.0678 11.3185 7.99727 11.4888 7.99727 11.6663C7.99727 11.8439 8.0678 12.0141 8.19333 12.1397L9.52667 13.473C9.59007 13.5337 9.66483 13.5813 9.74667 13.613C9.82647 13.6483 9.91275 13.6665 10 13.6665C10.0872 13.6665 10.1735 13.6483 10.2533 13.613C10.3352 13.5813 10.4099 13.5337 10.4733 13.473L11.8067 12.1397C11.8692 12.0777 11.9187 12.004 11.9526 11.9227C11.9864 11.8415 12.0039 11.7543 12.0039 11.6663C12.0039 11.5783 11.9864 11.4912 11.9526 11.41C11.9187 11.3287 11.8692 11.255 11.8067 11.193ZM6 10.9997C6.17681 10.9997 6.34638 10.9294 6.4714 10.8044C6.59643 10.6794 6.66667 10.5098 6.66667 10.333C6.66667 10.1562 6.59643 9.98663 6.4714 9.8616C6.34638 9.73658 6.17681 9.66634 6 9.66634H3.33333C3.15652 9.66634 2.98695 9.73658 2.86193 9.8616C2.7369 9.98663 2.66667 10.1562 2.66667 10.333C2.66667 10.5098 2.7369 10.6794 2.86193 10.8044C2.98695 10.9294 3.15652 10.9997 3.33333 10.9997H6Z" fill="#FF9800"/>
</svg>
