<svg width="21" height="12" viewBox="0 0 21 12" fill="none" xmlns="http://www.w3.org/2000/svg">
<path d="M4.71019 0.29C4.61508 0.198959 4.50294 0.127594 4.38019 0.0799999C4.13672 -0.0200181 3.86365 -0.0200181 3.62019 0.0799999C3.49743 0.127594 3.38529 0.198959 3.29019 0.29L1.29019 2.29C1.10188 2.4783 0.996094 2.7337 0.996094 3C0.996094 3.2663 1.10188 3.5217 1.29019 3.71C1.47849 3.8983 1.73388 4.00409 2.00019 4.00409C2.26649 4.00409 2.52188 3.8983 2.71019 3.71L3.00019 3.41V11C3.00019 11.2652 3.10554 11.5196 3.29308 11.7071C3.48062 11.8946 3.73497 12 4.00019 12C4.2654 12 4.51976 11.8946 4.70729 11.7071C4.89483 11.5196 5.00019 11.2652 5.00019 11V3.41L5.29019 3.71C5.38315 3.80373 5.49375 3.87812 5.61561 3.92889C5.73747 3.97966 5.86817 4.0058 6.00019 4.0058C6.1322 4.0058 6.2629 3.97966 6.38476 3.92889C6.50662 3.87812 6.61722 3.80373 6.71019 3.71C6.80391 3.61704 6.87831 3.50644 6.92908 3.38458C6.97985 3.26272 7.00598 3.13201 7.00598 3C7.00598 2.86799 6.97985 2.73728 6.92908 2.61542C6.87831 2.49356 6.80391 2.38296 6.71019 2.29L4.71019 0.29ZM10.0002 2H20.0002C20.2654 2 20.5198 1.89464 20.7073 1.70711C20.8948 1.51957 21.0002 1.26522 21.0002 1C21.0002 0.734784 20.8948 0.48043 20.7073 0.292893C20.5198 0.105357 20.2654 0 20.0002 0H10.0002C9.73497 0 9.48061 0.105357 9.29308 0.292893C9.10554 0.48043 9.00019 0.734784 9.00019 1C9.00019 1.26522 9.10554 1.51957 9.29308 1.70711C9.48061 1.89464 9.73497 2 10.0002 2ZM20.0002 10H10.0002C9.73497 10 9.48061 10.1054 9.29308 10.2929C9.10554 10.4804 9.00019 10.7348 9.00019 11C9.00019 11.2652 9.10554 11.5196 9.29308 11.7071C9.48061 11.8946 9.73497 12 10.0002 12H20.0002C20.2654 12 20.5198 11.8946 20.7073 11.7071C20.8948 11.5196 21.0002 11.2652 21.0002 11C21.0002 10.7348 20.8948 10.4804 20.7073 10.2929C20.5198 10.1054 20.2654 10 20.0002 10ZM20.0002 5H10.0002C9.73497 5 9.48061 5.10536 9.29308 5.29289C9.10554 5.48043 9.00019 5.73478 9.00019 6C9.00019 6.26522 9.10554 6.51957 9.29308 6.70711C9.48061 6.89464 9.73497 7 10.0002 7H20.0002C20.2654 7 20.5198 6.89464 20.7073 6.70711C20.8948 6.51957 21.0002 6.26522 21.0002 6C21.0002 5.73478 20.8948 5.48043 20.7073 5.29289C20.5198 5.10536 20.2654 5 20.0002 5Z" fill="#29384E"/>
</svg>
