<svg width="11" height="10" viewBox="0 0 11 10" fill="none" xmlns="http://www.w3.org/2000/svg">
<path d="M10 4.04997C10.05 3.79997 9.85 3.49997 9.6 3.49997L6.75 3.09997L5.45 0.499969C5.4 0.399969 5.35 0.349969 5.25 0.299969C5 0.149969 4.7 0.249969 4.55 0.499969L3.3 3.09997L0.45 3.49997C0.3 3.49997 0.2 3.54997 0.15 3.64997C-0.05 3.84997 -0.05 4.14997 0.15 4.34997L2.2 6.34997L1.7 9.19997C1.7 9.29997 1.7 9.39997 1.75 9.49997C1.9 9.74997 2.2 9.84997 2.45 9.69997L5 8.34997L7.55 9.69997C7.6 9.74997 7.7 9.74997 7.8 9.74997C7.85 9.74997 7.85 9.74997 7.9 9.74997C8.15 9.69997 8.35 9.44997 8.3 9.14997L7.8 6.29997L9.85 4.29997C9.95 4.24997 10 4.14997 10 4.04997Z" fill="#FF9800"/>
</svg>
