<svg width="21" height="18" viewBox="0 0 21 18" fill="none" xmlns="http://www.w3.org/2000/svg">
<path d="M20.5 2.80021C19.7483 3.1263 18.9534 3.34187 18.14 3.44021C18.9982 2.92753 19.6413 2.12099 19.95 1.17021C19.1436 1.65027 18.2608 1.98851 17.34 2.17021C16.7245 1.50278 15.905 1.05851 15.0098 0.907061C14.1147 0.755616 13.1945 0.905568 12.3938 1.3334C11.593 1.76123 10.9569 2.44274 10.5852 3.27105C10.2135 4.09935 10.1273 5.0276 10.34 5.91021C8.70943 5.82774 7.11444 5.40316 5.65865 4.66407C4.20287 3.92498 2.91885 2.8879 1.89 1.62021C1.52914 2.25038 1.33952 2.96403 1.34 3.69021C1.33872 4.36459 1.50422 5.02883 1.82176 5.62377C2.13929 6.21872 2.59902 6.72592 3.16 7.10021C2.50798 7.08247 1.86989 6.90751 1.3 6.59021V6.64021C1.30489 7.5851 1.63599 8.4993 2.23731 9.22818C2.83864 9.95705 3.67326 10.4559 4.6 10.6402C4.24326 10.7488 3.87287 10.806 3.5 10.8102C3.24189 10.8072 2.98442 10.7838 2.73 10.7402C2.99391 11.553 3.50462 12.2634 4.19107 12.7724C4.87753 13.2814 5.70558 13.5638 6.56 13.5802C5.1172 14.7155 3.33588 15.3351 1.5 15.3402C1.16574 15.3413 0.831736 15.3213 0.5 15.2802C2.37443 16.4905 4.55881 17.1329 6.79 17.1302C8.32969 17.1462 9.85714 16.8552 11.2831 16.2743C12.7091 15.6934 14.005 14.8341 15.0952 13.7467C16.1854 12.6593 17.048 11.3656 17.6326 9.94112C18.2172 8.51663 18.512 6.98994 18.5 5.45021C18.5 5.28021 18.5 5.10021 18.5 4.92021C19.2847 4.33502 19.9615 3.61763 20.5 2.80021Z" fill="white"/>
</svg>
