<svg width="20" height="10" viewBox="0 0 20 10" fill="none" xmlns="http://www.w3.org/2000/svg">
<path d="M16.85 0.716602C15.1833 0.216602 13.4667 0.683268 12.3583 1.7916L10 3.88327L8.73333 4.99994H8.74167L6.5 6.9916C5.825 7.6666 4.875 7.94994 3.9 7.75827C2.85833 7.54994 2 6.7166 1.75833 5.68327C1.325 3.82494 2.725 2.18327 4.5 2.18327C5.25833 2.18327 5.96667 2.47493 6.53333 3.0416L6.925 3.38327C7.24167 3.6666 7.71667 3.6666 8.03333 3.38327C8.40833 3.04994 8.40833 2.4666 8.03333 2.13327L7.68333 1.83327C6.83333 0.983268 5.7 0.516602 4.5 0.516602C2.01667 0.516602 0 2.53327 0 4.99994C0 7.4666 2.01667 9.48327 4.5 9.48327C5.7 9.48327 6.83333 9.0166 7.64167 8.20827L10 6.12494L10.0083 6.13327L11.2667 4.99994H11.2583L13.5 3.00827C14.175 2.33327 15.125 2.04993 16.1 2.2416C17.1417 2.44993 18 3.28327 18.2417 4.3166C18.675 6.17494 17.275 7.8166 15.5 7.8166C14.75 7.8166 14.0333 7.52494 13.4667 6.95827L13.0667 6.60827C12.75 6.32494 12.275 6.32494 11.9583 6.60827C11.5833 6.9416 11.5833 7.52494 11.9583 7.85827L12.3083 8.1666C13.1583 9.00827 14.2833 9.47494 15.4917 9.47494C18.2167 9.47494 20.375 7.05827 19.9333 4.2666C19.6833 2.60827 18.4583 1.1916 16.85 0.716602Z" fill="#546071"/>
</svg>
